<svg width="682" height="682" viewBox="0 0 682 682" fill="none" xmlns="http://www.w3.org/2000/svg">
<path d="M308.667 0.756182C242.4 7.15618 176.667 34.2229 125.2 76.0895C110 88.3562 86 112.623 74 127.69C43.4667 165.956 18.4 217.69 8 264.09C1.46667 293.156 0 307.423 0 340.756C0 374.09 1.46667 388.356 8 417.423C18.5333 464.756 44.2667 517.29 75.8667 556.09C88.1333 571.29 112.4 595.29 127.467 607.29C165.733 637.823 217.467 662.89 263.867 673.29C292.933 679.823 307.2 681.29 340.533 681.29C373.867 681.29 388.133 679.823 417.2 673.29C452 665.556 497.6 646.09 527.6 626.223C579.467 591.69 619.333 546.356 646.667 490.756C663.333 456.756 672.8 426.223 678.8 387.423C682 365.956 682 315.556 678.8 294.09C672.8 255.29 663.333 224.756 646.667 190.756C628.8 154.49 608.933 126.756 580.267 98.4895C552.133 70.6229 526.4 52.3562 490.533 34.7562C456.933 18.2228 425.733 8.48952 388.533 2.75618C371.733 0.222849 326.133 -0.843818 308.667 0.756182ZM387.867 45.9562C419.867 51.2895 443.733 59.0229 473.2 73.4229C549.2 110.756 608 182.49 629.2 264.223C636.4 291.823 638.4 308.356 638.4 340.756C638.4 373.156 636.4 389.69 629.2 417.29C608 499.023 549.2 570.756 473.2 608.09C443.733 622.49 420.267 630.09 387.2 635.69C363.2 639.823 317.867 639.823 293.867 635.69C260.8 630.09 237.333 622.49 207.867 608.09C131.867 570.756 73.0667 499.023 51.8667 417.29C44.6667 389.69 42.6667 373.156 42.6667 340.756C42.6667 308.356 44.6667 291.823 51.8667 264.223C59.2 235.956 74.5333 201.556 90.5333 177.423C141.467 100.89 220.133 53.1562 311.867 43.4229C329.067 41.5562 369.733 42.8895 387.867 45.9562Z" fill="#4ADE80"/>
<path d="M331.867 171.956C326.933 174.223 322.533 178.89 320.667 183.823C319.6 186.356 319.2 224.356 319.2 302.49V417.423L273.6 371.823C248.4 346.756 226.133 325.556 224.133 324.756C206.533 318.223 189.6 335.956 197.067 353.156C199.467 358.623 324 482.89 328.933 484.756C333.733 486.49 347.333 486.49 352.133 484.756C356.4 483.156 480.933 359.423 484 353.823C485.067 351.823 485.867 347.69 485.867 344.623C485.867 329.423 470.133 319.156 456.133 325.29C453.733 326.356 431.867 347.156 407.2 371.956L362.533 416.756L361.867 300.223C361.2 185.023 361.2 183.556 358.4 179.956C356.933 177.956 354.133 175.023 352.267 173.69C347.733 170.356 337.2 169.423 331.867 171.956Z" fill="#4ADE80"/>
</svg>
