<svg width="600" height="468" viewBox="0 0 600 468" fill="none" xmlns="http://www.w3.org/2000/svg">
<g clip-path="url(#clip0_344_215)">
<path d="M498.94 201.828C498.94 201.828 484.834 209.674 488.895 218.607C492.955 227.54 550.615 220.231 550.615 220.231C550.615 220.231 546.554 208.05 539.245 205.613C531.936 203.177 498.94 201.828 498.94 201.828Z" fill="#22C55E"/>
<path d="M493.441 203.92C496.277 202.077 499.428 200.774 502.737 200.076C513.774 197.401 525.329 197.761 536.178 201.119L535.979 200.957C540.601 203.397 544.658 206.78 547.889 210.888L493.441 203.92Z" fill="#CCCCCC"/>
<path d="M555.91 242.337C555.715 245.252 555.52 248.165 555.325 251.075C555.058 257.17 554.393 263.241 553.335 269.25C552.344 274.277 550.769 279.263 547.951 283.543C545.133 287.815 540.951 291.347 535.997 292.647C532.955 293.376 529.793 293.445 526.723 292.85C520.932 289.561 517.01 293.768 522.792 298.047C524.104 299.017 525.467 299.914 526.877 300.735L529.5 341.235L480.774 330.678L490.283 276.803C488.827 275.479 487.495 274.025 486.304 272.458C480.855 265.222 478.979 255.793 479.336 246.747C479.702 237.692 482.114 228.864 484.509 220.134C485.12 217.765 485.857 215.431 486.718 213.142C487.782 213.58 488.862 213.978 489.959 214.311C496.967 216.439 504.414 216.609 511.739 216.601C524.774 216.593 537.792 216.084 550.793 215.074C553.781 219.993 555.596 225.534 556.096 231.268C556.306 234.957 556.244 238.657 555.91 242.337Z" fill="#CCCCCC"/>
<path d="M347.508 352.275L422.522 358.935L423.326 359.008V38.9243C423.058 38.7375 422.79 38.5507 422.522 38.3639C406.889 27.4287 389.977 18.4452 372.164 11.6132L368.331 64.4813L367.981 69.3214L364.189 121.751L363.019 137.879L347.646 350.407L347.508 352.275Z" fill="#E6E6E6"/>
<path d="M161.999 32.9633C161.463 33.3044 160.927 33.6455 160.391 34.0028V359.008L161.999 358.861L236.201 352.275L236.063 350.407L220.69 137.879L219.52 121.751L215.728 69.3213L215.379 64.4812L211.359 9.0387C194.023 15.0478 177.456 23.078 161.999 32.9633Z" fill="#E6E6E6"/>
<path d="M160.391 34.0029C159.311 34.7013 158.231 35.4159 157.167 36.1387V363.442C157.167 371.62 162.015 378.474 168.496 380.22C169.555 380.507 170.647 380.651 171.744 380.65H412.777C413.872 380.652 414.961 380.507 416.017 380.22C418.426 379.552 420.61 378.244 422.336 376.435C425.627 372.917 427.426 368.259 427.354 363.442V41.8316C426.023 40.8489 424.683 39.8744 423.326 38.9242C423.058 38.7374 422.79 38.5507 422.522 38.3639V363.442C422.524 364.495 422.399 365.545 422.149 366.568C421.004 371.4 417.227 374.941 412.777 374.941H171.744C166.368 374.941 161.999 369.784 161.999 363.442V32.9634C161.463 33.3045 160.927 33.6455 160.391 34.0029Z" fill="#E6E6E6"/>
<path d="M424.938 64.4845H159.581V69.3238H424.938V64.4845Z" fill="#E6E6E6"/>
<path d="M343.667 2.75303C342.059 2.3551 340.451 1.98153 338.827 1.63232V133.039H343.667V2.75303Z" fill="#E6E6E6"/>
<path d="M245.694 0C244.078 0.300479 242.462 0.60907 240.854 0.942033V133.039H245.694V0Z" fill="#E6E6E6"/>
<path d="M107.555 372.18C107.554 374.957 108.086 377.709 109.123 380.285C109.521 381.284 109.996 382.251 110.544 383.176C111.252 384.383 112.073 385.52 112.996 386.571C115.037 388.896 117.55 390.758 120.367 392.034C123.185 393.31 126.243 393.97 129.336 393.969H447.121C452.898 393.969 458.438 391.674 462.522 387.589C466.607 383.505 468.902 377.965 468.902 372.188C468.902 366.412 466.607 360.872 462.522 356.787C458.438 352.702 452.898 350.407 447.121 350.407H129.336C123.563 350.413 118.027 352.709 113.944 356.79C109.861 360.872 107.563 366.407 107.555 372.18Z" fill="#E6E6E6"/>
<path d="M159.581 137.881L423.325 137.881V121.75L159.581 121.75V137.881Z" fill="#E6E6E6"/>
<path d="M302.745 125.783H280.161C280.161 124.618 280.391 123.464 280.837 122.388C281.282 121.311 281.936 120.333 282.76 119.509C283.584 118.685 284.562 118.032 285.638 117.586C286.715 117.14 287.868 116.911 289.033 116.911H293.873C296.226 116.911 298.482 117.845 300.146 119.509C301.81 121.173 302.745 123.43 302.745 125.783Z" fill="#E6E6E6"/>
<path d="M0 384.622C7.05497 392.981 14.6857 400.837 22.8364 408.132H577.164C585.314 400.837 592.945 392.981 600 384.622H0Z" fill="#3F3D56"/>
<path d="M150.37 306.001V389.291H208.719V306.001C208.72 305.402 208.529 304.819 208.174 304.336C207.819 303.854 207.318 303.498 206.746 303.321C206.476 303.232 206.194 303.188 205.909 303.192H153.188C152.818 303.191 152.452 303.263 152.11 303.404C151.768 303.545 151.458 303.751 151.196 304.012C150.934 304.273 150.727 304.583 150.585 304.925C150.443 305.266 150.37 305.632 150.37 306.001ZM173.141 334.62C173.156 332.978 173.819 331.408 174.986 330.253C176.152 329.097 177.728 328.449 179.37 328.449C181.012 328.449 182.587 329.097 183.754 330.253C184.92 331.408 185.583 332.978 185.599 334.62V344.284C185.59 345.931 184.93 347.507 183.763 348.668C182.596 349.829 181.016 350.481 179.37 350.481C177.723 350.481 176.144 349.829 174.977 348.668C173.809 347.507 173.149 345.931 173.141 344.284V334.62Z" fill="#2F2E41"/>
<path d="M150.191 386.627V394.659C150.192 395.075 150.357 395.474 150.651 395.769C150.944 396.064 151.342 396.231 151.758 396.235H207.331C207.747 396.233 208.146 396.066 208.439 395.77C208.733 395.475 208.898 395.076 208.898 394.659V386.627H150.191Z" fill="#3F3D56"/>
<path d="M58.5771 180.515V332.59C58.5787 334.528 59.3492 336.386 60.7196 337.756C62.0899 339.127 63.9481 339.897 65.8861 339.899H291.245C293.183 339.897 295.042 339.127 296.412 337.756C297.782 336.386 298.553 334.528 298.554 332.59V180.515C298.55 178.579 297.778 176.723 296.408 175.355C295.038 173.986 293.182 173.217 291.245 173.214H65.8861C63.9498 173.217 62.0934 173.986 60.7235 175.355C59.3535 176.723 58.5818 178.579 58.5771 180.515Z" fill="#3F3D56"/>
<path d="M63.864 182.407V330.714C63.8658 331.749 64.2779 332.742 65.0101 333.474C65.7422 334.206 66.7348 334.618 67.7702 334.62H289.37C290.405 334.618 291.398 334.206 292.13 333.474C292.862 332.742 293.274 331.749 293.276 330.714V182.407C293.276 181.37 292.864 180.376 292.132 179.642C291.4 178.908 290.406 178.495 289.37 178.493H67.7702C66.7335 178.495 65.7401 178.908 65.0077 179.642C64.2754 180.376 63.8641 181.37 63.864 182.407Z" fill="#22C55E"/>
<path d="M109.05 398.127C109.275 398.41 109.562 398.638 109.888 398.794C110.214 398.95 110.572 399.03 110.934 399.028H242.771C243.132 399.028 243.487 398.947 243.813 398.792C244.138 398.636 244.425 398.41 244.652 398.13C244.879 397.85 245.041 397.523 245.126 397.173C245.211 396.822 245.216 396.457 245.142 396.105L243.096 386.384C243.011 385.987 242.828 385.618 242.565 385.311C242.301 385.003 241.964 384.766 241.585 384.621C241.311 384.514 241.019 384.459 240.724 384.459H112.972C112.678 384.459 112.385 384.514 112.111 384.621C111.732 384.766 111.396 385.003 111.132 385.311C110.868 385.618 110.686 385.987 110.601 386.384L108.554 396.105C108.481 396.457 108.488 396.822 108.574 397.172C108.659 397.521 108.822 397.848 109.05 398.127Z" fill="#2F2E41"/>
<path d="M236.124 388.646H239.392C239.611 388.646 239.788 388.469 239.788 388.25V386.606C239.788 386.387 239.611 386.21 239.392 386.21H236.124C235.905 386.21 235.728 386.387 235.728 386.606V388.25C235.728 388.469 235.905 388.646 236.124 388.646Z" fill="#3F3D56"/>
<path d="M228.003 388.646H231.271C231.489 388.646 231.667 388.469 231.667 388.25V386.606C231.667 386.387 231.489 386.21 231.271 386.21H228.003C227.784 386.21 227.606 386.387 227.606 386.606V388.25C227.606 388.469 227.784 388.646 228.003 388.646Z" fill="#3F3D56"/>
<path d="M219.882 388.646H223.149C223.368 388.646 223.546 388.469 223.546 388.25V386.606C223.546 386.387 223.368 386.21 223.149 386.21H219.882C219.663 386.21 219.485 386.387 219.485 386.606V388.25C219.485 388.469 219.663 388.646 219.882 388.646Z" fill="#3F3D56"/>
<path d="M211.761 388.646H215.028C215.247 388.646 215.425 388.469 215.425 388.25V386.606C215.425 386.387 215.247 386.21 215.028 386.21H211.761C211.542 386.21 211.364 386.387 211.364 386.606V388.25C211.364 388.469 211.542 388.646 211.761 388.646Z" fill="#3F3D56"/>
<path d="M203.64 388.646H206.907C207.126 388.646 207.304 388.469 207.304 388.25V386.606C207.304 386.387 207.126 386.21 206.907 386.21H203.64C203.421 386.21 203.243 386.387 203.243 386.606V388.25C203.243 388.469 203.421 388.646 203.64 388.646Z" fill="#3F3D56"/>
<path d="M195.519 388.646H198.786C199.005 388.646 199.183 388.469 199.183 388.25V386.606C199.183 386.387 199.005 386.21 198.786 386.21H195.519C195.3 386.21 195.122 386.387 195.122 386.606V388.25C195.122 388.469 195.3 388.646 195.519 388.646Z" fill="#3F3D56"/>
<path d="M187.398 388.646H190.665C190.884 388.646 191.062 388.469 191.062 388.25V386.606C191.062 386.387 190.884 386.21 190.665 386.21H187.398C187.179 386.21 187.001 386.387 187.001 386.606V388.25C187.001 388.469 187.179 388.646 187.398 388.646Z" fill="#3F3D56"/>
<path d="M179.277 388.646H182.544C182.763 388.646 182.941 388.469 182.941 388.25V386.606C182.941 386.387 182.763 386.21 182.544 386.21H179.277C179.058 386.21 178.88 386.387 178.88 386.606V388.25C178.88 388.469 179.058 388.646 179.277 388.646Z" fill="#3F3D56"/>
<path d="M171.156 388.646H174.423C174.642 388.646 174.82 388.469 174.82 388.25V386.606C174.82 386.387 174.642 386.21 174.423 386.21H171.156C170.937 386.21 170.759 386.387 170.759 386.606V388.25C170.759 388.469 170.937 388.646 171.156 388.646Z" fill="#3F3D56"/>
<path d="M163.034 388.646H166.302C166.521 388.646 166.698 388.469 166.698 388.25V386.606C166.698 386.387 166.521 386.21 166.302 386.21H163.034C162.815 386.21 162.638 386.387 162.638 386.606V388.25C162.638 388.469 162.815 388.646 163.034 388.646Z" fill="#3F3D56"/>
<path d="M154.913 388.646H158.181C158.4 388.646 158.577 388.469 158.577 388.25V386.606C158.577 386.387 158.4 386.21 158.181 386.21H154.913C154.694 386.21 154.517 386.387 154.517 386.606V388.25C154.517 388.469 154.694 388.646 154.913 388.646Z" fill="#3F3D56"/>
<path d="M146.792 388.646H150.06C150.279 388.646 150.456 388.469 150.456 388.25V386.606C150.456 386.387 150.279 386.21 150.06 386.21H146.792C146.573 386.21 146.396 386.387 146.396 386.606V388.25C146.396 388.469 146.573 388.646 146.792 388.646Z" fill="#3F3D56"/>
<path d="M138.671 388.646H141.939C142.158 388.646 142.335 388.469 142.335 388.25V386.606C142.335 386.387 142.158 386.21 141.939 386.21H138.671C138.452 386.21 138.275 386.387 138.275 386.606V388.25C138.275 388.469 138.452 388.646 138.671 388.646Z" fill="#3F3D56"/>
<path d="M130.55 388.646H133.818C134.037 388.646 134.214 388.469 134.214 388.25V386.606C134.214 386.387 134.037 386.21 133.818 386.21H130.55C130.331 386.21 130.154 386.387 130.154 386.606V388.25C130.154 388.469 130.331 388.646 130.55 388.646Z" fill="#3F3D56"/>
<path d="M122.429 388.646H125.697C125.916 388.646 126.093 388.469 126.093 388.25V386.606C126.093 386.387 125.916 386.21 125.697 386.21H122.429C122.21 386.21 122.033 386.387 122.033 386.606V388.25C122.033 388.469 122.21 388.646 122.429 388.646Z" fill="#3F3D56"/>
<path d="M114.308 388.646H117.576C117.795 388.646 117.972 388.469 117.972 388.25V386.606C117.972 386.387 117.795 386.21 117.576 386.21H114.308C114.089 386.21 113.912 386.387 113.912 386.606V388.25C113.912 388.469 114.089 388.646 114.308 388.646Z" fill="#3F3D56"/>
<path d="M236.22 392.707H239.488C239.707 392.707 239.884 392.529 239.884 392.31V390.667C239.884 390.448 239.707 390.27 239.488 390.27H236.22C236.001 390.27 235.824 390.448 235.824 390.667V392.31C235.824 392.529 236.001 392.707 236.22 392.707Z" fill="#3F3D56"/>
<path d="M228.099 392.707H231.366C231.585 392.707 231.763 392.529 231.763 392.31V390.667C231.763 390.448 231.585 390.27 231.366 390.27H228.099C227.88 390.27 227.702 390.448 227.702 390.667V392.31C227.702 392.529 227.88 392.707 228.099 392.707Z" fill="#3F3D56"/>
<path d="M219.978 392.707H223.245C223.464 392.707 223.642 392.529 223.642 392.31V390.667C223.642 390.448 223.464 390.27 223.245 390.27H219.978C219.759 390.27 219.581 390.448 219.581 390.667V392.31C219.581 392.529 219.759 392.707 219.978 392.707Z" fill="#3F3D56"/>
<path d="M211.857 392.707H215.124C215.343 392.707 215.521 392.529 215.521 392.31V390.667C215.521 390.448 215.343 390.27 215.124 390.27H211.857C211.638 390.27 211.46 390.448 211.46 390.667V392.31C211.46 392.529 211.638 392.707 211.857 392.707Z" fill="#3F3D56"/>
<path d="M203.736 392.707H207.003C207.222 392.707 207.4 392.529 207.4 392.31V390.667C207.4 390.448 207.222 390.27 207.003 390.27H203.736C203.517 390.27 203.339 390.448 203.339 390.667V392.31C203.339 392.529 203.517 392.707 203.736 392.707Z" fill="#3F3D56"/>
<path d="M195.615 392.707H198.882C199.101 392.707 199.279 392.529 199.279 392.31V390.667C199.279 390.448 199.101 390.27 198.882 390.27H195.615C195.396 390.27 195.218 390.448 195.218 390.667V392.31C195.218 392.529 195.396 392.707 195.615 392.707Z" fill="#3F3D56"/>
<path d="M187.494 392.707H190.761C190.98 392.707 191.158 392.529 191.158 392.31V390.667C191.158 390.448 190.98 390.27 190.761 390.27H187.494C187.275 390.27 187.097 390.448 187.097 390.667V392.31C187.097 392.529 187.275 392.707 187.494 392.707Z" fill="#3F3D56"/>
<path d="M179.373 392.707H182.64C182.859 392.707 183.037 392.529 183.037 392.31V390.667C183.037 390.448 182.859 390.27 182.64 390.27H179.373C179.154 390.27 178.976 390.448 178.976 390.667V392.31C178.976 392.529 179.154 392.707 179.373 392.707Z" fill="#3F3D56"/>
<path d="M171.251 392.707H174.519C174.738 392.707 174.916 392.529 174.916 392.31V390.667C174.916 390.448 174.738 390.27 174.519 390.27H171.251C171.033 390.27 170.855 390.448 170.855 390.667V392.31C170.855 392.529 171.033 392.707 171.251 392.707Z" fill="#3F3D56"/>
<path d="M163.13 392.707H166.398C166.617 392.707 166.794 392.529 166.794 392.31V390.667C166.794 390.448 166.617 390.27 166.398 390.27H163.13C162.911 390.27 162.734 390.448 162.734 390.667V392.31C162.734 392.529 162.911 392.707 163.13 392.707Z" fill="#3F3D56"/>
<path d="M155.009 392.707H158.277C158.496 392.707 158.673 392.529 158.673 392.31V390.667C158.673 390.448 158.496 390.27 158.277 390.27H155.009C154.79 390.27 154.613 390.448 154.613 390.667V392.31C154.613 392.529 154.79 392.707 155.009 392.707Z" fill="#3F3D56"/>
<path d="M146.888 392.707H150.156C150.375 392.707 150.552 392.529 150.552 392.31V390.667C150.552 390.448 150.375 390.27 150.156 390.27H146.888C146.669 390.27 146.492 390.448 146.492 390.667V392.31C146.492 392.529 146.669 392.707 146.888 392.707Z" fill="#3F3D56"/>
<path d="M138.767 392.707H142.035C142.254 392.707 142.431 392.529 142.431 392.31V390.667C142.431 390.448 142.254 390.27 142.035 390.27H138.767C138.548 390.27 138.371 390.448 138.371 390.667V392.31C138.371 392.529 138.548 392.707 138.767 392.707Z" fill="#3F3D56"/>
<path d="M130.646 392.707H133.914C134.133 392.707 134.31 392.529 134.31 392.31V390.667C134.31 390.448 134.133 390.27 133.914 390.27H130.646C130.427 390.27 130.25 390.448 130.25 390.667V392.31C130.25 392.529 130.427 392.707 130.646 392.707Z" fill="#3F3D56"/>
<path d="M122.525 392.707H125.793C126.012 392.707 126.189 392.529 126.189 392.31V390.667C126.189 390.448 126.012 390.27 125.793 390.27H122.525C122.306 390.27 122.129 390.448 122.129 390.667V392.31C122.129 392.529 122.306 392.707 122.525 392.707Z" fill="#3F3D56"/>
<path d="M114.404 392.707H117.672C117.891 392.707 118.068 392.529 118.068 392.31V390.667C118.068 390.448 117.891 390.27 117.672 390.27H114.404C114.185 390.27 114.008 390.448 114.008 390.667V392.31C114.008 392.529 114.185 392.707 114.404 392.707Z" fill="#3F3D56"/>
<path d="M168.815 397.579H200.506C200.725 397.579 200.903 397.402 200.903 397.183V395.54C200.903 395.321 200.725 395.143 200.506 395.143H168.815C168.596 395.143 168.419 395.321 168.419 395.54V397.183C168.419 397.402 168.596 397.579 168.815 397.579Z" fill="#3F3D56"/>
<path d="M78.9057 198.923H286.255C286.471 198.918 286.676 198.829 286.827 198.675C286.977 198.521 287.062 198.314 287.062 198.098C287.062 197.883 286.977 197.675 286.827 197.521C286.676 197.367 286.471 197.278 286.255 197.274H78.9057C78.6901 197.278 78.485 197.367 78.3342 197.521C78.1834 197.675 78.099 197.883 78.099 198.098C78.099 198.314 78.1834 198.521 78.3342 198.675C78.485 198.829 78.6901 198.918 78.9057 198.923Z" fill="#3F3D56"/>
<path d="M272.141 193.063C274.81 193.063 276.973 190.852 276.973 188.123C276.973 185.395 274.81 183.183 272.141 183.183C269.472 183.183 267.308 185.395 267.308 188.123C267.308 190.852 269.472 193.063 272.141 193.063Z" fill="#3F3D56"/>
<path d="M255.447 193.063C258.116 193.063 260.279 190.852 260.279 188.123C260.279 185.395 258.116 183.183 255.447 183.183C252.778 183.183 250.615 185.395 250.615 188.123C250.615 190.852 252.778 193.063 255.447 193.063Z" fill="#3F3D56"/>
<path d="M238.753 193.063C241.422 193.063 243.586 190.852 243.586 188.123C243.586 185.395 241.422 183.183 238.753 183.183C236.085 183.183 233.921 185.395 233.921 188.123C233.921 190.852 236.085 193.063 238.753 193.063Z" fill="#3F3D56"/>
<path d="M88.0729 185.306C88.0723 185.423 88.0948 185.539 88.139 185.647C88.1832 185.755 88.2482 185.853 88.3304 185.936C88.4126 186.019 88.5104 186.085 88.6181 186.13C88.7258 186.176 88.8413 186.199 88.9581 186.2H100.815C101.049 186.194 101.272 186.097 101.436 185.93C101.6 185.762 101.692 185.537 101.692 185.302C101.692 185.068 101.6 184.843 101.436 184.675C101.272 184.507 101.049 184.41 100.815 184.405H88.9581C88.7214 184.408 88.4955 184.504 88.3296 184.673C88.1637 184.842 88.0715 185.07 88.0729 185.306Z" fill="#3F3D56"/>
<path d="M88.0729 188.677C88.0723 188.793 88.0948 188.909 88.139 189.017C88.1832 189.125 88.2482 189.224 88.3304 189.307C88.4126 189.39 88.5104 189.456 88.6181 189.501C88.7258 189.546 88.8413 189.569 88.9581 189.57H100.815C101.049 189.565 101.273 189.468 101.437 189.3C101.601 189.132 101.693 188.907 101.693 188.673C101.693 188.438 101.601 188.213 101.437 188.045C101.273 187.877 101.049 187.78 100.815 187.775H88.9581C88.7214 187.778 88.4955 187.874 88.3296 188.043C88.1637 188.212 88.0715 188.44 88.0729 188.677Z" fill="#3F3D56"/>
<path d="M88.0729 192.039C88.0715 192.275 88.1637 192.503 88.3296 192.672C88.4955 192.841 88.7214 192.937 88.9581 192.94H100.815C101.049 192.935 101.272 192.838 101.436 192.67C101.6 192.502 101.692 192.277 101.692 192.043C101.692 191.808 101.6 191.583 101.436 191.416C101.272 191.248 101.049 191.151 100.815 191.145H88.9581C88.8413 191.146 88.7258 191.169 88.6181 191.215C88.5104 191.26 88.4126 191.326 88.3304 191.409C88.2482 191.492 88.1832 191.59 88.139 191.698C88.0948 191.806 88.0723 191.922 88.0729 192.039Z" fill="#3F3D56"/>
<path d="M91.7372 218.086H87.4768C86.1851 218.086 85.1379 219.133 85.1379 220.424C85.1379 221.716 86.1851 222.763 87.4768 222.763H91.7372C93.0289 222.763 94.076 221.716 94.076 220.424C94.076 219.133 93.0289 218.086 91.7372 218.086Z" fill="#E6E6E6"/>
<path d="M140.464 218.086H136.203C134.911 218.086 133.864 219.133 133.864 220.424C133.864 221.716 134.911 222.763 136.203 222.763H140.464C141.755 222.763 142.802 221.716 142.802 220.424C142.802 219.133 141.755 218.086 140.464 218.086Z" fill="#E6E6E6"/>
<path d="M154.269 218.086H150.009C148.717 218.086 147.67 219.133 147.67 220.424C147.67 221.716 148.717 222.763 150.009 222.763H154.269C155.561 222.763 156.608 221.716 156.608 220.424C156.608 219.133 155.561 218.086 154.269 218.086Z" fill="#E6E6E6"/>
<path d="M127.21 217.696H100.73C99.4387 217.696 98.3916 218.743 98.3916 220.035C98.3916 221.326 99.4387 222.373 100.73 222.373H127.21C128.501 222.373 129.549 221.326 129.549 220.035C129.549 218.743 128.501 217.696 127.21 217.696Z" fill="#E6E6E6"/>
<path d="M192.178 217.696H165.699C164.407 217.696 163.36 218.743 163.36 220.035C163.36 221.326 164.407 222.373 165.699 222.373H192.178C193.47 222.373 194.517 221.326 194.517 220.035C194.517 218.743 193.47 217.696 192.178 217.696Z" fill="#E6E6E6"/>
<path d="M104.731 228.643H100.47C99.1787 228.643 98.1316 229.69 98.1316 230.982C98.1316 232.273 99.1787 233.321 100.47 233.321H104.731C106.023 233.321 107.07 232.273 107.07 230.982C107.07 229.69 106.023 228.643 104.731 228.643Z" fill="#E6E6E6"/>
<path d="M153.457 228.643H149.197C147.905 228.643 146.858 229.69 146.858 230.982C146.858 232.273 147.905 233.321 149.197 233.321H153.457C154.749 233.321 155.796 232.273 155.796 230.982C155.796 229.69 154.749 228.643 153.457 228.643Z" fill="#E6E6E6"/>
<path d="M167.263 228.643H163.003C161.711 228.643 160.664 229.69 160.664 230.982C160.664 232.273 161.711 233.321 163.003 233.321H167.263C168.555 233.321 169.602 232.273 169.602 230.982C169.602 229.69 168.555 228.643 167.263 228.643Z" fill="#E6E6E6"/>
<path d="M140.203 228.253H113.724C112.432 228.253 111.385 229.3 111.385 230.592C111.385 231.884 112.432 232.931 113.724 232.931H140.203C141.495 232.931 142.542 231.884 142.542 230.592C142.542 229.3 141.495 228.253 140.203 228.253Z" fill="#E6E6E6"/>
<path d="M205.172 228.253H178.693C177.401 228.253 176.354 229.3 176.354 230.592C176.354 231.884 177.401 232.931 178.693 232.931H205.172C206.464 232.931 207.511 231.884 207.511 230.592C207.511 229.3 206.464 228.253 205.172 228.253Z" fill="#E6E6E6"/>
<path d="M117.725 239.2H113.464C112.172 239.2 111.125 240.247 111.125 241.539C111.125 242.831 112.172 243.878 113.464 243.878H117.725C119.016 243.878 120.063 242.831 120.063 241.539C120.063 240.247 119.016 239.2 117.725 239.2Z" fill="#E6E6E6"/>
<path d="M166.451 239.2H162.19C160.899 239.2 159.852 240.247 159.852 241.539C159.852 242.831 160.899 243.878 162.19 243.878H166.451C167.743 243.878 168.79 242.831 168.79 241.539C168.79 240.247 167.743 239.2 166.451 239.2Z" fill="#E6E6E6"/>
<path d="M180.257 239.2H175.996C174.705 239.2 173.657 240.247 173.657 241.539C173.657 242.831 174.705 243.878 175.996 243.878H180.257C181.548 243.878 182.596 242.831 182.596 241.539C182.596 240.247 181.548 239.2 180.257 239.2Z" fill="#E6E6E6"/>
<path d="M153.197 238.81H126.718C125.426 238.81 124.379 239.858 124.379 241.149C124.379 242.441 125.426 243.488 126.718 243.488H153.197C154.489 243.488 155.536 242.441 155.536 241.149C155.536 239.858 154.489 238.81 153.197 238.81Z" fill="#E6E6E6"/>
<path d="M218.166 238.81H191.686C190.395 238.81 189.347 239.858 189.347 241.149C189.347 242.441 190.395 243.488 191.686 243.488H218.166C219.457 243.488 220.504 242.441 220.504 241.149C220.504 239.858 219.457 238.81 218.166 238.81Z" fill="#E6E6E6"/>
<path d="M130.718 249.758H126.458C125.166 249.758 124.119 250.805 124.119 252.097C124.119 253.388 125.166 254.435 126.458 254.435H130.718C132.01 254.435 133.057 253.388 133.057 252.097C133.057 250.805 132.01 249.758 130.718 249.758Z" fill="#E6E6E6"/>
<path d="M179.445 249.758H175.184C173.892 249.758 172.845 250.805 172.845 252.097C172.845 253.388 173.892 254.435 175.184 254.435H179.445C180.736 254.435 181.783 253.388 181.783 252.097C181.783 250.805 180.736 249.758 179.445 249.758Z" fill="#E6E6E6"/>
<path d="M193.25 249.758H188.99C187.698 249.758 186.651 250.805 186.651 252.097C186.651 253.388 187.698 254.435 188.99 254.435H193.25C194.542 254.435 195.589 253.388 195.589 252.097C195.589 250.805 194.542 249.758 193.25 249.758Z" fill="#E6E6E6"/>
<path d="M166.191 249.368H139.712C138.42 249.368 137.373 250.415 137.373 251.707C137.373 252.998 138.42 254.045 139.712 254.045H166.191C167.483 254.045 168.53 252.998 168.53 251.707C168.53 250.415 167.483 249.368 166.191 249.368Z" fill="#E6E6E6"/>
<path d="M140.464 291.738H136.203C134.911 291.738 133.864 292.785 133.864 294.077C133.864 295.369 134.911 296.416 136.203 296.416H140.464C141.755 296.416 142.802 295.369 142.802 294.077C142.802 292.785 141.755 291.738 140.464 291.738Z" fill="#E6E6E6"/>
<path d="M154.269 291.738H150.009C148.717 291.738 147.67 292.785 147.67 294.077C147.67 295.369 148.717 296.416 150.009 296.416H154.269C155.561 296.416 156.608 295.369 156.608 294.077C156.608 292.785 155.561 291.738 154.269 291.738Z" fill="#E6E6E6"/>
<path d="M192.178 292.128H165.699C164.407 292.128 163.36 293.175 163.36 294.467C163.36 295.759 164.407 296.806 165.699 296.806H192.178C193.47 296.806 194.517 295.759 194.517 294.467C194.517 293.175 193.47 292.128 192.178 292.128Z" fill="#E6E6E6"/>
<path d="M91.7372 291.738H87.4768C86.1851 291.738 85.1379 292.785 85.1379 294.077C85.1379 295.369 86.1851 296.416 87.4768 296.416H91.7372C93.0289 296.416 94.076 295.369 94.076 294.077C94.076 292.785 93.0289 291.738 91.7372 291.738Z" fill="#E6E6E6"/>
<path d="M127.21 292.128H100.73C99.4387 292.128 98.3916 293.175 98.3916 294.467C98.3916 295.759 99.4387 296.806 100.73 296.806H127.21C128.501 296.806 129.549 295.759 129.549 294.467C129.549 293.175 128.501 292.128 127.21 292.128Z" fill="#E6E6E6"/>
<path d="M104.731 281.181H100.47C99.1787 281.181 98.1316 282.228 98.1316 283.52C98.1316 284.811 99.1787 285.859 100.47 285.859H104.731C106.023 285.859 107.07 284.811 107.07 283.52C107.07 282.228 106.023 281.181 104.731 281.181Z" fill="#E6E6E6"/>
<path d="M153.457 281.181H149.197C147.905 281.181 146.858 282.228 146.858 283.52C146.858 284.811 147.905 285.859 149.197 285.859H153.457C154.749 285.859 155.796 284.811 155.796 283.52C155.796 282.228 154.749 281.181 153.457 281.181Z" fill="#E6E6E6"/>
<path d="M167.263 281.181H163.003C161.711 281.181 160.664 282.228 160.664 283.52C160.664 284.811 161.711 285.859 163.003 285.859H167.263C168.555 285.859 169.602 284.811 169.602 283.52C169.602 282.228 168.555 281.181 167.263 281.181Z" fill="#E6E6E6"/>
<path d="M140.203 281.571H113.724C112.432 281.571 111.385 282.618 111.385 283.91C111.385 285.201 112.432 286.249 113.724 286.249H140.203C141.495 286.249 142.542 285.201 142.542 283.91C142.542 282.618 141.495 281.571 140.203 281.571Z" fill="#E6E6E6"/>
<path d="M117.725 270.624H113.464C112.172 270.624 111.125 271.671 111.125 272.962C111.125 274.254 112.172 275.301 113.464 275.301H117.725C119.016 275.301 120.063 274.254 120.063 272.962C120.063 271.671 119.016 270.624 117.725 270.624Z" fill="#E6E6E6"/>
<path d="M166.451 270.624H162.19C160.899 270.624 159.852 271.671 159.852 272.962C159.852 274.254 160.899 275.301 162.19 275.301H166.451C167.743 275.301 168.79 274.254 168.79 272.962C168.79 271.671 167.743 270.624 166.451 270.624Z" fill="#E6E6E6"/>
<path d="M180.257 270.624H175.996C174.705 270.624 173.657 271.671 173.657 272.962C173.657 274.254 174.705 275.301 175.996 275.301H180.257C181.548 275.301 182.596 274.254 182.596 272.962C182.596 271.671 181.548 270.624 180.257 270.624Z" fill="#E6E6E6"/>
<path d="M153.197 271.014H126.718C125.426 271.014 124.379 272.061 124.379 273.352C124.379 274.644 125.426 275.691 126.718 275.691H153.197C154.489 275.691 155.536 274.644 155.536 273.352C155.536 272.061 154.489 271.014 153.197 271.014Z" fill="#E6E6E6"/>
<path d="M130.718 260.066H126.458C125.166 260.066 124.119 261.113 124.119 262.405C124.119 263.697 125.166 264.744 126.458 264.744H130.718C132.01 264.744 133.057 263.697 133.057 262.405C133.057 261.113 132.01 260.066 130.718 260.066Z" fill="#E6E6E6"/>
<path d="M179.445 260.066H175.184C173.892 260.066 172.845 261.113 172.845 262.405C172.845 263.697 173.892 264.744 175.184 264.744H179.445C180.736 264.744 181.783 263.697 181.783 262.405C181.783 261.113 180.736 260.066 179.445 260.066Z" fill="#E6E6E6"/>
<path d="M193.25 260.066H188.99C187.698 260.066 186.651 261.113 186.651 262.405C186.651 263.697 187.698 264.744 188.99 264.744H193.25C194.542 264.744 195.589 263.697 195.589 262.405C195.589 261.113 194.542 260.066 193.25 260.066Z" fill="#E6E6E6"/>
<path d="M166.191 260.456H139.712C138.42 260.456 137.373 261.503 137.373 262.795C137.373 264.087 138.42 265.134 139.712 265.134H166.191C167.483 265.134 168.53 264.087 168.53 262.795C168.53 261.503 167.483 260.456 166.191 260.456Z" fill="#E6E6E6"/>
<path d="M76.4192 444.254C76.9146 444.506 77.4181 444.758 77.9135 445.002C90.7447 451.417 101.01 455.063 115.051 459.059C116.237 445.822 117.382 422.555 118.494 408.132C118.787 404.388 119.079 401.245 119.363 399.028C119.435 397.849 119.676 396.687 120.078 395.577L120.029 399.028L119.907 408.132L119.201 460.196C136.667 464.817 154.609 467.404 172.67 467.903C173.612 467.927 174.538 467.943 175.431 467.96C175.748 467.968 176.056 467.976 176.365 467.976C177.38 467.984 178.387 467.992 179.402 467.992C198.435 468.006 217.398 465.707 235.876 461.146C235.478 448.047 235.08 425.04 234.699 408.132C234.617 404.827 234.544 401.749 234.463 399.028C234.309 393.213 234.146 389.023 233.992 387.618C234.129 387.867 234.235 388.131 234.309 388.406C235.061 391.908 235.574 395.457 235.844 399.028C236.128 401.749 236.412 404.827 236.696 408.132C238.207 425.698 239.782 449.582 241.407 459.709C251.074 457.069 260.561 453.806 269.806 449.939C274.679 447.909 279.465 445.719 284.164 443.369C283.271 437.522 282.337 430.968 281.378 424.171C280.631 418.9 279.86 413.484 279.072 408.132C277.854 399.865 259.752 342.091 258.607 339.899C257.624 338.023 256.69 336.252 255.805 334.62C253.661 330.657 251.842 327.498 250.494 325.5C244.858 316.951 236.468 310.586 226.716 307.463L226.472 307.398L226.301 307.471L209.694 302.371L207.266 301.624L205.633 301.121L199.884 296.743L196.757 294.364L193.825 292.131L188.092 287.77L152.595 289.954L145.684 306.594L130.205 312.255L129.937 312.133L129.702 312.035L129.458 312.1C119.707 315.226 111.318 321.59 105.679 330.137C104.916 331.282 103.99 332.793 102.943 334.62C102.049 336.171 101.075 337.942 100.019 339.899C98.5167 342.684 96.8762 345.827 95.1383 349.23C94.7566 349.977 94.3668 350.74 93.977 351.512C93.2542 352.941 92.5206 354.4 91.7762 355.889C90.0464 359.34 88.2598 362.946 86.4731 366.609C84.922 369.784 83.3547 376.314 81.8117 384.621C80.5367 391.524 79.2698 399.662 78.0435 408.132C76.4355 419.111 78.149 432.259 76.6954 442.362C76.606 443.004 76.5085 443.629 76.4192 444.254Z" fill="#3F3D56"/>
<path opacity="0.2" d="M246.547 384.586L239.647 357.955L233.553 380.934L246.547 384.586Z" fill="black"/>
<path d="M62.922 367.234C65.3908 401.245 62.8327 416.22 76.4598 444.262C88.8585 450.331 101.773 455.283 115.051 459.059C116.432 459.449 117.815 459.828 119.201 460.196C136.667 464.817 154.609 467.404 172.67 467.903C173.612 467.927 174.538 467.944 175.431 467.96C175.748 467.968 176.056 467.976 176.365 467.976C177.38 467.984 178.387 467.992 179.402 467.992C198.435 468.006 217.398 465.707 235.876 461.146C237.728 460.691 239.571 460.212 241.407 459.709C251.074 457.069 260.561 453.806 269.806 449.939C274.679 447.909 279.465 445.719 284.164 443.369C285.228 442.833 286.292 442.297 287.339 441.745C292.724 432.276 295.785 420.76 295.85 406.922C292.123 383.078 71.1567 346.672 62.922 367.234Z" fill="#2F2E41"/>
<path opacity="0.2" d="M62.9283 373.059C62.8022 370.953 62.6612 368.778 62.4968 366.513C70.7316 345.951 291.697 382.357 295.425 406.201C295.415 408.387 295.321 410.508 295.164 412.58C286.137 389.046 76.2165 354.444 62.9283 373.059Z" fill="black"/>
<path d="M12.855 384.277C13.2128 385.319 13.8915 386.22 14.7937 386.852C15.6959 387.484 16.7751 387.814 17.8764 387.794L39.3906 387.241C40.4999 387.219 41.5725 386.839 42.448 386.157C43.3234 385.475 43.9548 384.529 44.2476 383.459L47.2921 350.903C48.3723 351.393 49.5482 351.634 50.7338 351.611C52.8131 351.557 54.786 350.68 56.2189 349.172C57.6518 347.665 58.4274 345.65 58.3752 343.57C58.323 341.491 57.4473 339.517 55.9405 338.084C54.4338 336.65 52.4193 335.873 50.34 335.924C49.8661 335.922 49.3934 335.971 48.93 336.07C48.426 335.525 47.8134 335.091 47.1317 334.797C46.45 334.503 45.7142 334.355 44.9717 334.362L11.878 335.217C11.6035 335.227 11.3304 335.261 11.0617 335.318C10.336 335.454 9.6476 335.743 9.04299 336.166C8.43838 336.59 7.93154 337.138 7.55656 337.774C7.18159 338.41 6.94721 339.119 6.86917 339.853C6.79113 340.587 6.87125 341.329 7.10415 342.03L12.855 384.277ZM47.9165 348.693L50.0829 340.935C50.3293 340.039 50.335 339.094 50.0994 338.195C50.2045 338.194 50.2972 338.145 50.4024 338.144C51.8878 338.114 53.3248 338.673 54.3983 339.7C55.4718 340.728 56.0941 342.138 56.1289 343.624C56.1637 345.109 55.6081 346.548 54.5838 347.624C53.5596 348.7 52.1504 349.326 50.6651 349.365C49.7048 349.395 48.7545 349.163 47.9165 348.693Z" fill="#2F2E41"/>
<path d="M11.0618 335.318C11.7668 339.35 19.6937 342.184 29.2252 341.691C37.99 341.287 45.1567 338.21 46.4696 334.562C45.9837 334.418 45.4784 334.351 44.9718 334.362L11.8781 335.217C11.6036 335.227 11.3304 335.261 11.0618 335.318Z" fill="#3F3D56"/>
<path d="M30.972 366.388C31.0156 366.377 31.057 366.358 31.0946 366.334L35.7667 363.276C35.8232 363.239 35.8696 363.188 35.9017 363.129C35.9339 363.07 35.9507 363.004 35.9508 362.936C35.9508 362.869 35.934 362.802 35.9019 362.743C35.8698 362.684 35.8235 362.633 35.767 362.597L30.9108 359.416C30.8662 359.386 30.8163 359.366 30.7638 359.356C30.7113 359.346 30.6574 359.346 30.605 359.357C30.5527 359.367 30.503 359.388 30.4588 359.419C30.4146 359.449 30.3767 359.487 30.3474 359.532C30.3181 359.576 30.2979 359.626 30.288 359.679C30.2781 359.732 30.2787 359.785 30.2897 359.838C30.3007 359.89 30.3219 359.94 30.3521 359.984C30.3824 360.028 30.421 360.065 30.4658 360.095L34.8032 362.935L30.6501 365.654C30.5697 365.707 30.5105 365.786 30.4831 365.878C30.4557 365.971 30.4619 366.069 30.5005 366.157C30.5391 366.245 30.6077 366.317 30.694 366.359C30.7804 366.401 30.8789 366.411 30.972 366.388Z" fill="#22C55E"/>
<path d="M23.5927 366.728C23.6711 366.708 23.7418 366.665 23.7957 366.605C23.8496 366.545 23.8843 366.47 23.8953 366.39C23.9063 366.309 23.8931 366.228 23.8574 366.155C23.8217 366.083 23.7652 366.022 23.695 365.982L19.3884 363.513L23.5509 360.421C23.5937 360.389 23.6298 360.349 23.6571 360.304C23.6845 360.258 23.7026 360.207 23.7104 360.155C23.7181 360.102 23.7154 360.048 23.7024 359.996C23.6894 359.945 23.6664 359.896 23.6346 359.853C23.6028 359.811 23.5629 359.775 23.5172 359.747C23.4715 359.72 23.4208 359.702 23.3681 359.694C23.3154 359.686 23.2616 359.689 23.21 359.702C23.1583 359.715 23.1097 359.738 23.0669 359.77L18.4065 363.231C18.3524 363.272 18.3091 363.325 18.2806 363.386C18.252 363.447 18.2392 363.514 18.2431 363.581C18.2471 363.649 18.2678 363.714 18.3033 363.771C18.3388 363.828 18.388 363.876 18.4465 363.909L23.2909 366.687C23.3823 366.739 23.4905 366.754 23.5927 366.728Z" fill="#22C55E"/>
<path d="M30.5073 369.068C30.5466 369.058 30.5842 369.042 30.6186 369.021C30.6642 368.993 30.7039 368.957 30.7354 368.914C30.7669 368.871 30.7897 368.822 30.8023 368.77C30.815 368.718 30.8172 368.664 30.8091 368.612C30.8009 368.559 30.7824 368.508 30.7546 368.463L24.1315 357.574C24.0752 357.482 23.985 357.417 23.8805 357.392C23.7761 357.367 23.6659 357.384 23.5742 357.44C23.4824 357.496 23.4165 357.586 23.391 357.69C23.3654 357.794 23.3822 357.904 23.4377 357.996L30.0608 368.885C30.106 368.96 30.1737 369.017 30.2541 369.05C30.3344 369.083 30.4232 369.089 30.5073 369.068Z" fill="#22C55E"/>
<path d="M544.93 323.369H472.653V386.713H544.93V323.369Z" fill="#3F3D56"/>
<path d="M555.643 234.89C554.303 242.831 555.48 250.993 559.009 258.232C560.315 260.895 561.933 264.102 560.342 266.605C559.896 267.231 559.315 267.749 558.643 268.122C557.971 268.494 557.224 268.712 556.457 268.758C554.922 268.84 553.386 268.641 551.922 268.171" fill="#CCCCCC"/>
<path d="M492.143 210.486C493.489 210.486 494.579 209.577 494.579 208.456C494.579 207.335 493.489 206.426 492.143 206.426C490.798 206.426 489.707 207.335 489.707 208.456C489.707 209.577 490.798 210.486 492.143 210.486Z" fill="#3F3D56"/>
<path d="M501.076 211.298C502.422 211.298 503.513 210.389 503.513 209.268C503.513 208.147 502.422 207.238 501.076 207.238C499.731 207.238 498.64 208.147 498.64 209.268C498.64 210.389 499.731 211.298 501.076 211.298Z" fill="#3F3D56"/>
<path d="M510.01 215.359C511.355 215.359 512.446 214.45 512.446 213.328C512.446 212.207 511.355 211.298 510.01 211.298C508.664 211.298 507.573 212.207 507.573 213.328C507.573 214.45 508.664 215.359 510.01 215.359Z" fill="#3F3D56"/>
<path d="M520.567 212.922C521.912 212.922 523.003 212.013 523.003 210.892C523.003 209.771 521.912 208.862 520.567 208.862C519.221 208.862 518.13 209.771 518.13 210.892C518.13 212.013 519.221 212.922 520.567 212.922Z" fill="#3F3D56"/>
<path d="M298.801 251.403C310.634 248.118 323.813 251.638 332.957 259.702C337.891 264.083 341.511 269.748 343.416 276.065C345.751 283.584 346.137 291.515 346.381 299.331C346.652 307.973 346.886 316.617 347.138 325.259C347.378 333.5 347.406 341.779 347.956 350.006C348.417 356.909 349.522 364.076 353.217 370.063C356.642 375.614 362.054 379.362 368.169 381.428C374.368 383.522 381.05 384.01 387.552 383.967C395.12 383.943 402.674 383.345 410.151 382.178C424.353 379.903 438.38 374.1 447.053 362.128C451.047 356.692 453.291 350.169 453.487 343.427C453.67 335.57 451.16 327.96 448.411 320.703C445.735 313.64 442.84 306.683 441.147 299.299C439.574 292.389 438.824 285.317 438.914 278.231C439.059 264.054 442.457 250.1 448.845 237.443C452.079 230.942 456.181 224.912 461.038 219.516C466.048 214.065 472.251 209.565 479.627 208.09C483.227 207.344 486.955 207.494 490.483 208.526C491.988 208.977 492.631 206.627 491.131 206.177C483.823 203.989 475.885 205.653 469.406 209.45C463.035 213.185 458.001 218.786 453.729 224.726C445.52 236.37 440.055 249.723 437.744 263.782C435.434 277.841 436.337 292.24 440.387 305.9C444.722 320.103 454.152 334.887 450.101 350.258C446.555 363.712 434.272 372.855 421.583 376.985C413.884 379.491 405.813 380.551 397.763 381.099C390.959 381.563 384.063 381.857 377.279 380.983C371.048 380.18 364.639 378.275 359.808 374.093C354.512 369.508 352.092 362.92 351.039 356.159C349.847 348.509 350.022 340.621 349.797 332.902L349.029 306.555C348.596 291.674 348.97 275.182 339.288 262.852C335.417 258.048 330.502 254.189 324.916 251.57C319.329 248.951 313.219 247.641 307.05 247.739C304.042 247.808 301.054 248.25 298.154 249.053C297.852 249.148 297.599 249.356 297.448 249.633C297.297 249.911 297.259 250.236 297.343 250.541C297.427 250.845 297.626 251.105 297.898 251.266C298.17 251.427 298.494 251.476 298.801 251.403Z" fill="#3F3D56"/>
<path d="M125.849 235.99C127.574 248.261 134.099 259.345 143.992 266.808C153.885 274.27 166.335 277.5 178.608 275.788C190.881 274.076 201.972 267.561 209.444 257.676C216.917 247.791 220.159 235.344 218.459 223.069L218.367 222.406C216.389 210.297 209.731 199.451 199.828 192.207C189.925 184.963 177.572 181.902 165.433 183.684C153.294 185.467 142.341 191.949 134.939 201.734C127.536 211.519 124.277 223.821 125.863 235.988L125.849 235.99Z" fill="#FFB6B6"/>
<path d="M167.065 274.649C164.648 269.78 162.164 264.552 162.82 259.156C163.477 253.759 168.75 248.586 173.949 250.172C177.059 251.12 179.417 254.179 182.664 254.325C187.132 254.526 189.676 249.405 191.053 245.149L196.658 227.817C207.47 236.311 193.777 227.406 207.17 224.297C212.424 223.077 217.729 220.715 220.798 216.28C223.868 211.844 223.827 204.981 219.585 201.649C217.505 200.015 214.742 199.401 212.753 197.657C211.52 196.575 210.668 195.124 210.323 193.52C209.978 191.917 210.158 190.244 210.837 188.751C211.516 187.257 212.659 186.022 214.094 185.228C215.53 184.434 217.183 184.123 218.809 184.342L204.544 182.607L208.767 174.909C205.713 177.333 201.454 177.671 197.615 176.993C193.776 176.315 190.158 174.748 186.401 173.707C168.366 168.71 147.455 177.573 138.505 194.008C134.992 192.848 131.209 192.783 127.659 193.821C124.108 194.859 120.956 196.952 118.621 199.822C114.82 204.68 113.804 211.149 113.677 217.315C113.44 229.475 116.131 241.513 121.523 252.413C123.204 255.801 125.191 259.124 128.047 261.602C130.904 264.08 163.188 277.808 166.914 277.161" fill="#2F2E41"/>
<path d="M504.325 242.564C504.331 244.672 504.061 246.772 503.521 248.809V248.818C503.512 248.858 503.496 248.899 503.488 248.939C501.848 254.973 497.933 259.212 493.361 259.212C488.813 259.212 484.915 255.006 483.25 249.021C483.137 248.606 483.039 248.192 482.95 247.762C482.836 247.283 482.747 246.787 482.674 246.276C482.609 245.87 482.56 245.455 482.52 245.033C482.463 244.448 482.422 243.864 482.414 243.255V243.246C482.398 243.019 482.398 242.792 482.398 242.564V242.361L482.406 242.353C482.407 241.324 482.475 240.296 482.609 239.275C482.666 238.845 482.731 238.431 482.812 238.017C482.909 237.513 483.015 237.018 483.145 236.53C483.25 236.1 483.372 235.686 483.502 235.272C483.681 234.719 483.876 234.183 484.095 233.672C484.233 233.339 484.379 233.014 484.525 232.697C486.523 228.588 489.739 225.916 493.361 225.916C498.372 225.916 502.595 231.024 503.902 237.992C503.919 238.098 503.943 238.203 503.951 238.309V238.317C504.201 239.719 504.326 241.14 504.325 242.564Z" fill="#E6E6E6"/>
<path d="M484.631 233.054C484.627 233.203 484.571 233.346 484.473 233.459C484.375 233.571 484.242 233.646 484.095 233.672C484.233 233.339 484.379 233.014 484.526 232.697C484.593 232.804 484.63 232.928 484.631 233.054Z" fill="#22C55E"/>
<path d="M494.233 232.315H487.086C486.737 232.315 486.455 232.597 486.455 232.946C486.455 233.295 486.737 233.577 487.086 233.577H494.233C494.581 233.577 494.864 233.295 494.864 232.946C494.864 232.597 494.581 232.315 494.233 232.315Z" fill="#22C55E"/>
<path d="M484.412 235.897C484.412 236.065 484.345 236.226 484.226 236.344C484.107 236.463 483.946 236.53 483.778 236.53H483.145C483.251 236.1 483.372 235.686 483.502 235.271H483.778C483.945 235.271 484.105 235.337 484.224 235.454C484.342 235.571 484.41 235.73 484.412 235.897Z" fill="#22C55E"/>
<path d="M487.508 235.269H486.358C486.01 235.269 485.727 235.552 485.727 235.901C485.727 236.249 486.01 236.532 486.358 236.532H487.508C487.857 236.532 488.139 236.249 488.139 235.901C488.139 235.552 487.857 235.269 487.508 235.269Z" fill="#22C55E"/>
<path d="M497.739 235.164H490.593C490.244 235.164 489.962 235.447 489.962 235.795C489.962 236.144 490.244 236.427 490.593 236.427H497.739C498.088 236.427 498.371 236.144 498.371 235.795C498.371 235.447 498.088 235.164 497.739 235.164Z" fill="#22C55E"/>
<path d="M487.289 238.119H486.139C485.791 238.119 485.508 238.401 485.508 238.75C485.508 239.099 485.791 239.381 486.139 239.381H487.289C487.638 239.381 487.92 239.099 487.92 238.75C487.92 238.401 487.638 238.119 487.289 238.119Z" fill="#22C55E"/>
<path d="M491.015 238.119H489.865C489.517 238.119 489.234 238.401 489.234 238.75C489.234 239.099 489.517 239.381 489.865 239.381H491.015C491.364 239.381 491.646 239.099 491.646 238.75C491.646 238.401 491.364 238.119 491.015 238.119Z" fill="#22C55E"/>
<path d="M484.347 238.642C484.347 238.81 484.28 238.971 484.161 239.089C484.042 239.208 483.882 239.275 483.714 239.275H482.609C482.666 238.845 482.731 238.431 482.812 238.017H483.714C483.796 238.016 483.878 238.031 483.955 238.062C484.032 238.093 484.102 238.139 484.16 238.197C484.219 238.255 484.266 238.325 484.298 238.401C484.33 238.477 484.347 238.559 484.347 238.642Z" fill="#22C55E"/>
<path d="M501.246 238.013H494.1C493.751 238.013 493.469 238.296 493.469 238.645C493.469 238.993 493.751 239.276 494.1 239.276H501.246C501.595 239.276 501.878 238.993 501.878 238.645C501.878 238.296 501.595 238.013 501.246 238.013Z" fill="#22C55E"/>
<path d="M484.631 242.8C484.631 242.883 484.614 242.964 484.582 243.041C484.55 243.117 484.503 243.186 484.444 243.244C484.386 243.302 484.316 243.348 484.239 243.379C484.162 243.41 484.08 243.426 483.998 243.425H482.852C482.69 243.426 482.533 243.365 482.414 243.255V243.246C482.398 243.019 482.398 242.792 482.398 242.564V242.361L482.406 242.353C482.464 242.294 482.534 242.247 482.61 242.215C482.687 242.183 482.769 242.166 482.852 242.166H483.998C484.166 242.167 484.326 242.233 484.445 242.352C484.564 242.471 484.631 242.632 484.631 242.8Z" fill="#CCCCCC"/>
<path d="M494.233 242.06H487.086C486.737 242.06 486.455 242.343 486.455 242.691C486.455 243.04 486.737 243.323 487.086 243.323H494.233C494.581 243.323 494.864 243.04 494.864 242.691C494.864 242.343 494.581 242.06 494.233 242.06Z" fill="#CCCCCC"/>
<path d="M484.412 245.642C484.411 245.81 484.345 245.971 484.226 246.09C484.107 246.209 483.946 246.275 483.778 246.276H482.674C482.609 245.87 482.56 245.455 482.52 245.033C482.556 245.02 482.595 245.014 482.633 245.017H483.778C483.945 245.017 484.105 245.082 484.224 245.199C484.342 245.316 484.41 245.476 484.412 245.642Z" fill="#CCCCCC"/>
<path d="M487.508 245.015H486.358C486.01 245.015 485.727 245.297 485.727 245.646C485.727 245.994 486.01 246.277 486.358 246.277H487.508C487.857 246.277 488.139 245.994 488.139 245.646C488.139 245.297 487.857 245.015 487.508 245.015Z" fill="#CCCCCC"/>
<path d="M497.739 244.909H490.593C490.244 244.909 489.962 245.192 489.962 245.541C489.962 245.889 490.244 246.172 490.593 246.172H497.739C498.088 246.172 498.371 245.889 498.371 245.541C498.371 245.192 498.088 244.909 497.739 244.909Z" fill="#CCCCCC"/>
<path d="M487.289 247.864H486.139C485.791 247.864 485.508 248.147 485.508 248.495C485.508 248.844 485.791 249.126 486.139 249.126H487.289C487.638 249.126 487.92 248.844 487.92 248.495C487.92 248.147 487.638 247.864 487.289 247.864Z" fill="#CCCCCC"/>
<path d="M491.015 247.864H489.865C489.517 247.864 489.234 248.147 489.234 248.495C489.234 248.844 489.517 249.126 489.865 249.126H491.015C491.364 249.126 491.646 248.844 491.646 248.495C491.646 248.147 491.364 247.864 491.015 247.864Z" fill="#CCCCCC"/>
<path d="M484.347 248.387C484.347 248.555 484.28 248.716 484.161 248.835C484.042 248.953 483.882 249.02 483.714 249.021H483.251C483.137 248.606 483.04 248.192 482.95 247.762H483.714C483.796 247.761 483.878 247.777 483.955 247.808C484.032 247.839 484.102 247.884 484.16 247.943C484.219 248.001 484.266 248.07 484.298 248.146C484.33 248.222 484.347 248.304 484.347 248.387Z" fill="#CCCCCC"/>
<path d="M501.246 247.759H494.1C493.751 247.759 493.469 248.041 493.469 248.39C493.469 248.739 493.751 249.021 494.1 249.021H501.246C501.595 249.021 501.878 248.739 501.878 248.39C501.878 248.041 501.595 247.759 501.246 247.759Z" fill="#CCCCCC"/>
</g>
<defs>
<clipPath id="clip0_344_215">
<rect width="600" height="467.992" fill="white"/>
</clipPath>
</defs>
</svg>
