<svg width="736" height="448" viewBox="0 0 736 448" fill="none" xmlns="http://www.w3.org/2000/svg">
<g clip-path="url(#clip0_345_556)">
<path d="M582.01 304.396H562.77L562.7 304.326C559.28 300.696 557.74 295.586 558.59 290.676C558.86 289.086 559.37 287.546 560.11 286.096L565.96 274.646L563.64 233.636C563.6 232.876 563.86 232.156 564.38 231.596C564.9 231.046 565.61 230.736 566.37 230.736H569.97C571.45 230.736 572.65 231.896 572.71 233.366L574.28 273.896L582.38 286.556C583.07 287.636 583.63 288.786 584.03 289.976C585.62 294.586 585.04 299.596 582.43 303.716L582 304.386H582.01V304.396Z" fill="#3F3D56"/>
<path d="M580.35 301.556C580.17 301.846 579.85 302.016 579.51 302.016H564.87C564.59 302.016 564.31 301.896 564.13 301.686C561.66 298.876 560.57 295.186 561 291.596C561.05 291.206 561.34 290.876 561.72 290.776C564.78 289.966 568.47 289.506 572.44 289.506C575.55 289.506 578.48 289.796 581.08 290.306C581.44 290.376 581.73 290.636 581.83 290.986C582.87 294.506 582.38 298.366 580.36 301.556H580.35Z" fill="#22C55E"/>
<path d="M734.8 313.066H1C0.45 313.066 0 312.616 0 312.066C0 311.516 0.45 311.066 1 311.066H734.8C735.35 311.066 735.8 311.516 735.8 312.066C735.8 312.616 735.35 313.066 734.8 313.066Z" fill="#3F3D56"/>
<path d="M215.45 127.326C204.7 124.106 197.64 115.946 199.69 109.106C201.74 102.266 212.12 99.3257 222.87 102.546C227.18 103.776 231.14 106.016 234.41 109.086L279.8 123.296L272.68 144.456L228.69 128.196C224.27 128.966 219.73 128.666 215.45 127.316L215.45 127.326Z" fill="#A0616A"/>
<path d="M416.8 132.886L417.35 170.256C417.35 170.256 370.37 169.636 353.93 170.926C337.49 172.226 235.04 134.726 235.04 134.726L252.06 110.596L365.08 137.876L416.8 132.876V132.886Z" fill="#E6E6E6"/>
<path d="M218.8 82.0657H211.8V177.066H218.8V82.0657Z" fill="#22C55E"/>
<path d="M244.07 312.066H203.58L203.43 311.906C196.23 304.256 192.99 293.516 194.77 283.176C195.34 279.836 196.41 276.596 197.97 273.546L210.29 249.456L205.4 163.156C205.31 161.556 205.87 160.036 206.97 158.876C208.07 157.716 209.56 157.076 211.16 157.076H218.73C221.84 157.076 224.38 159.506 224.5 162.616L227.79 247.916L244.85 274.556C246.31 276.836 247.48 279.256 248.33 281.756C251.67 291.456 250.45 301.996 244.97 310.666L244.07 312.076L244.07 312.066Z" fill="#3F3D56"/>
<path d="M240.59 306.096C240.21 306.696 239.54 307.066 238.82 307.066H208C207.41 307.066 206.83 306.816 206.44 306.376C201.24 300.456 198.95 292.706 199.85 285.146C199.95 284.316 200.56 283.636 201.37 283.426C207.8 281.726 215.57 280.746 223.93 280.746C230.47 280.746 236.65 281.356 242.11 282.426C242.86 282.576 243.48 283.116 243.69 283.846C245.87 291.246 244.84 299.376 240.59 306.096Z" fill="#22C55E"/>
<path d="M386.8 80.0657L392.8 121.066L344.8 126.066L347.8 73.0657L386.8 80.0657Z" fill="#A0616A"/>
<path d="M341.17 92.2757C359.048 92.2757 373.54 77.7831 373.54 59.9056C373.54 42.0282 359.048 27.5356 341.17 27.5356C323.293 27.5356 308.8 42.0282 308.8 59.9056C308.8 77.7831 323.293 92.2757 341.17 92.2757Z" fill="#A0616A"/>
<path d="M240.31 206.776C231.15 198.556 219.37 196.706 213.99 202.646C208.61 208.586 211.67 220.066 220.83 228.286C224.44 231.626 228.82 234.026 233.61 235.296L272.86 269.626L289.05 250.516L248.64 218.706C246.88 214.096 244.02 210.006 240.31 206.776Z" fill="#A0616A"/>
<path d="M347.8 116.066L396.8 109.066L425.8 131.066L428.8 252.066L456.8 445.066L270.8 447.066C270.8 447.066 284.8 322.066 291.8 315.066C298.8 308.066 303.8 276.066 303.8 276.066L317.8 138.066L347.8 116.066Z" fill="#E6E6E6"/>
<path d="M329.3 137.566C329.3 137.566 303.3 135.566 297.3 153.566C291.3 171.566 284.3 230.566 284.3 230.566L268.3 232.566L254.3 217.566L239.3 253.566C239.3 253.566 292.3 311.566 312.3 285.566C332.3 259.566 329.3 137.566 329.3 137.566Z" fill="#E6E6E6"/>
<path d="M396.3 76.6156C396.3 76.6156 396.3 44.5656 399.3 34.5656C402.3 24.5656 385.3 13.5656 380.3 3.56565C375.3 -6.43435 344.3 7.56565 331.3 9.56565C318.3 11.5656 319.3 19.5656 311.3 32.5656C303.3 45.5656 319.3 65.5656 331.3 67.5656C343.3 69.5656 339.3 78.5656 347.53 88.5656C355.76 98.5656 382.06 88.5656 382.06 88.5656L385.3 93.5656C385.3 93.5656 378.3 121.566 391.3 145.566L425.3 154.566C415.3 124.566 426.3 124.566 432.57 109.066C438.84 93.5656 396.3 76.6156 396.3 76.6156Z" fill="#2F2E41"/>
<path d="M634.11 303.386H616.29V273.506H634.11C636.14 273.506 637.77 271.856 637.77 269.826C637.77 267.796 636.13 266.176 634.11 266.166H509.87C507.84 266.166 506.21 267.816 506.21 269.846C506.21 271.876 507.85 273.496 509.87 273.506H525.07V303.386H509.87C507.84 303.386 506.21 305.036 506.21 307.066C506.21 309.096 507.85 310.716 509.87 310.726H634.11C636.14 310.726 637.77 309.076 637.77 307.046C637.77 305.016 636.13 303.396 634.11 303.386ZM532.41 303.386L540.79 281.066L608.94 273.506V303.386H532.41Z" fill="#F2F2F2"/>
</g>
<defs>
<clipPath id="clip0_345_556">
<rect width="735.8" height="447.066" fill="white"/>
</clipPath>
</defs>
</svg>
