<svg width="851" height="1000" viewBox="0 0 851 1000" fill="none" xmlns="http://www.w3.org/2000/svg">
<g clip-path="url(#clip0_343_58)">
<path d="M837.521 836.445H270.945C267.585 836.441 264.364 835.104 261.988 832.728C259.612 830.352 258.276 827.131 258.272 823.771V12.6734C258.275 9.31336 259.612 6.09201 261.988 3.7161C264.364 1.34018 267.585 0.00374906 270.945 0H837.521C840.881 0.003753 844.102 1.34019 846.478 3.7161C848.854 6.09201 850.19 9.31336 850.194 12.6734V823.771C850.19 827.131 848.854 830.352 846.478 832.728C844.102 835.104 840.881 836.441 837.521 836.445Z" fill="#3F3D56"/>
<path d="M825.593 824.517H282.873C279.513 824.513 276.292 823.176 273.916 820.801C271.54 818.425 270.204 815.203 270.2 811.843V24.6014C270.203 21.2413 271.54 18.02 273.916 15.6441C276.292 13.2682 279.513 11.9317 282.873 11.928H825.593C828.953 11.9317 832.174 13.2682 834.55 15.6441C836.926 18.02 838.263 21.2413 838.266 24.6014V811.843C838.262 815.203 836.926 818.425 834.55 820.801C832.174 823.176 828.953 824.513 825.593 824.517Z" fill="white"/>
<path d="M431.327 783.238C383.048 719.507 402.194 646.768 373.909 596.025C265.505 401.541 398.99 419.459 549.909 457.28L550.268 461.475C454.214 476.299 391.044 525.734 376.954 597.105C366.003 652.572 386.098 717.607 433.536 780.23L431.327 783.238Z" fill="#F0F0F0"/>
<path d="M537.377 546.052L536.369 542.052C590.259 517.62 585.628 444.847 633.843 428.229C1001.12 301.639 638.577 287.363 557.029 220.402C484.105 160.523 404.629 90.9043 303.625 55.0489L304.431 50.9668C405.876 86.9799 496.307 146.008 559.062 217.179C622.133 288.706 649.772 364.042 636.887 429.309C626.726 480.777 592.316 521.145 537.377 546.052Z" fill="#F0F0F0"/>
<path d="M390.682 405.792C366.056 403.847 395.115 387.549 397.06 362.922C397.52 357.065 399.13 351.355 401.797 346.12C404.464 340.885 408.137 336.226 412.605 332.41C417.073 328.595 422.25 325.697 427.838 323.882C433.426 322.068 439.318 321.372 445.175 321.834C451.032 322.297 456.741 323.909 461.975 326.579C467.21 329.249 471.866 332.923 475.68 337.393C479.494 341.863 482.389 347.04 484.201 352.63C486.014 358.219 486.707 364.11 486.242 369.967C484.296 394.594 415.309 407.737 390.682 405.792Z" fill="#4ADE80"/>
<path d="M627.139 252.474C621.283 252.011 615.576 250.4 610.343 247.731C605.11 245.063 600.454 241.39 596.64 236.922C592.827 232.455 589.931 227.28 588.117 221.693C586.304 216.106 585.608 210.216 586.071 204.36C588.016 179.733 539.111 163.26 563.738 165.205C588.365 167.151 677.198 186.779 675.252 211.405C674.79 217.261 673.178 222.968 670.51 228.201C667.842 233.434 664.169 238.09 659.701 241.904C655.233 245.718 650.058 248.614 644.471 250.427C638.884 252.241 632.995 252.936 627.139 252.474Z" fill="#4ADE80"/>
<path d="M681.041 196.337C684.287 203.07 682.373 210.848 678.087 216.661C673.212 223.272 665.457 226.532 657.503 227.609C648.964 228.645 640.304 227.932 632.051 225.513C624.089 223.215 615.825 218.29 614.183 209.49C613.088 203.626 615.591 197.367 621.681 195.741C624.123 195.124 626.684 195.146 629.116 195.805C631.548 196.465 633.768 197.74 635.564 199.508C640.621 204.771 640.236 213.219 637.022 219.332C633.242 226.522 625.679 230.49 617.902 231.799C608.657 233.356 599.367 231.182 590.669 228.088C581.216 224.725 572.046 220.538 562.784 216.691C544.721 209.19 526.269 202.144 506.845 199.156C477.172 194.593 441.957 201.699 423.792 227.714C413.986 241.757 411.209 259.369 413.319 276.123C415.545 293.792 423.298 310.029 433.564 324.408C439 331.887 444.935 338.99 451.33 345.668C453.411 347.692 454.844 350.289 455.446 353.129C456.048 355.97 455.792 358.925 454.71 361.619C449.082 375.446 426.583 371.04 424.907 356.787C424.145 350.311 427.758 343.641 432.273 339.249C437.396 334.457 443.852 331.33 450.788 330.279C465.387 327.841 480.819 333.254 491.979 342.657C504.587 353.279 511.684 369.421 515.423 385.135C519.679 403.025 519.896 421.426 520.3 439.714C520.714 458.429 521.426 477.365 526.795 495.428C531.161 509.967 537.901 523.683 546.743 536.022C564.402 560.882 589.506 579.486 618.429 589.146C625.425 591.416 632.599 593.097 639.876 594.17C642.725 594.592 643.065 590.132 640.228 589.711C608.509 585.008 579.339 567.834 558.458 543.694C547.993 531.651 539.722 517.864 534.022 502.962C527.213 485.014 525.486 465.949 524.93 446.9C524.363 427.444 524.672 407.813 520.777 388.648C517.333 371.705 510.579 354.549 498.07 342.204C487.041 331.32 471.262 324.586 455.667 325.308C441.157 325.98 425.642 333.972 421.33 348.777C419.306 355.724 420.594 363.181 425.897 368.341C428.921 371.209 432.68 373.184 436.757 374.045C440.835 374.907 445.071 374.622 448.997 373.223C453.262 371.378 456.688 368.012 458.609 363.781C460.529 359.549 460.807 354.754 459.387 350.329C458.193 347.08 456.275 344.146 453.778 341.75C440.688 327.77 428.675 312.126 422.157 293.924C416.077 276.945 414.83 257.415 421.842 240.521C435.116 208.538 473.641 198.928 505.022 203.398C525.559 206.323 545.005 214.099 564.029 222.052C573.743 226.114 583.395 230.627 593.47 233.736C602.49 236.519 612.17 237.917 621.463 235.634C629.574 233.642 637.029 228.926 640.959 221.381C644.528 214.528 645.144 205.833 640.899 199.119C634.762 189.412 617.818 187.228 611.643 198.131C607.546 205.365 609.559 214.628 614.94 220.628C620.972 227.355 630.006 230.102 638.652 231.489C654.989 234.109 675.106 232.05 683.846 215.914C687.447 209.266 688.419 201.34 685.069 194.391C684.799 193.877 684.34 193.488 683.789 193.307C683.237 193.125 682.637 193.165 682.115 193.418C681.592 193.67 681.188 194.116 680.988 194.66C680.787 195.205 680.806 195.806 681.041 196.337Z" fill="#3F3D56"/>
<path d="M628.491 595.081C602.376 593.017 532.549 628.751 513.647 613.378C511.285 611.472 509 609.472 506.792 607.378C499.565 600.6 493.182 592.975 487.782 584.668C486.846 583.263 485.956 581.846 485.097 580.418C482.068 575.342 479.402 570.058 477.117 564.606C476.717 563.618 476.318 562.614 475.918 561.61C465.281 534.12 464.742 503.747 474.398 475.896C484.053 448.046 503.277 424.524 528.647 409.517C554.018 394.51 583.89 388.991 612.948 393.942C642.006 398.894 668.365 413.993 687.334 436.555C688.347 437.742 689.328 438.956 690.292 440.199C699.921 452.531 707.129 466.574 711.536 481.586C711.534 481.601 711.549 481.602 711.548 481.617C718.121 504.129 718.228 528.036 711.857 550.605L711.854 550.635C711.71 551.132 711.566 551.629 711.407 552.125C695.096 607.327 688.169 599.795 628.491 595.081Z" fill="#4ADE80"/>
<path d="M477.681 564.666C477.492 564.669 477.302 564.649 477.118 564.606C476.717 563.617 476.318 562.614 475.918 561.61C476.087 561.189 476.38 560.83 476.758 560.579C477.135 560.329 477.58 560.199 478.033 560.207C480.294 560.199 482.546 559.941 484.75 559.436C503.876 555.114 515.025 535.535 519.801 518.054C525.664 496.666 525.744 473.684 536.339 453.732C540.455 445.533 546.507 438.46 553.97 433.124C562.165 427.571 572.124 425.241 581.932 426.583C605.008 429.633 621.851 447.4 643.274 454.716C652.099 457.732 661.493 458.474 670.319 455.043C677.817 452.136 684.657 446.394 686.207 438.141C686.258 437.807 686.386 437.49 686.582 437.215C686.778 436.939 687.035 436.713 687.334 436.555C688.347 437.742 689.328 438.956 690.292 440.199C689.947 441.689 689.447 443.138 688.798 444.523C685.034 452.422 677.526 457.527 669.352 460.082C659.892 463.029 650.049 461.907 640.842 458.607C619.375 450.914 601.718 431.901 578.016 430.716C557.472 429.691 543.275 446.578 536.44 464.194C527.988 485.991 529.243 510.424 519.754 531.9C512.287 548.794 497.325 564.587 477.681 564.666Z" fill="#3F3D56"/>
<path d="M487.782 584.668C486.846 583.263 485.956 581.846 485.097 580.418C485.305 580.252 485.546 580.132 485.804 580.068C486.062 580.003 486.33 579.994 486.592 580.042C505.761 582.304 525.069 577.158 540.569 565.656C547.37 560.683 553.282 554.596 558.054 547.653C563.011 540.387 566.004 532.218 569.363 524.153C572.667 516.218 576.547 508.194 583.118 502.446C589.817 496.589 598.462 494.131 607.217 493.866C627.966 493.246 646.059 505.04 666.252 507.473C675.26 508.558 684.201 507.261 691.912 502.231C698.568 497.881 703.413 491.07 703.102 482.894C702.986 480.193 706.921 480.369 707.496 482.748C707.535 482.911 707.557 483.078 707.561 483.246C707.916 492.757 702.069 500.895 694.373 505.925C685.429 511.785 674.98 513.233 664.523 511.749C644.291 508.864 625.591 496.618 604.656 498.464C600.262 498.718 595.972 499.891 592.061 501.909C588.15 503.927 584.707 506.743 581.954 510.176C576.445 517.249 573.534 525.888 570.134 534.085C566.908 542.277 562.398 549.903 556.773 556.676C551.081 563.288 544.368 568.948 536.888 573.441C522.175 582.422 504.936 586.363 487.782 584.668Z" fill="#3F3D56"/>
<path d="M513.647 613.378C511.285 611.472 509 609.472 506.792 607.378C518.183 610.277 530.053 610.772 541.645 608.83C556.231 606.49 569.991 600.509 581.651 591.44C587.458 586.894 592.581 581.536 596.862 575.532C601.742 568.663 606.006 561.073 613.365 556.525C629.34 546.659 648.46 555.678 664.409 560.527C672.733 563.069 681.676 564.793 690.154 561.978C696.728 559.79 703.109 554.939 704.408 547.773C704.914 544.957 709.39 545.295 708.867 548.126C708.765 548.656 708.648 549.185 708.517 549.713C706.467 557.493 700.1 563.107 692.586 565.834C682.78 569.367 672.621 567.712 662.879 564.744C646.858 559.859 625.92 549.814 611.425 563.67C605.31 569.514 601.558 577.428 596.044 583.813C591.125 589.535 585.45 594.561 579.174 598.753C559.903 611.589 536.547 616.802 513.647 613.378Z" fill="#3F3D56"/>
<path d="M826.338 931.122H720.478C717.118 931.118 713.897 929.782 711.521 927.406C709.145 925.03 707.809 921.809 707.805 918.449V881.174C707.808 877.814 709.145 874.593 711.521 872.217C713.897 869.841 717.118 868.504 720.478 868.501H826.338C829.698 868.504 832.92 869.841 835.296 872.217C837.671 874.593 839.008 877.814 839.012 881.174V918.449C839.008 921.809 837.671 925.03 835.295 927.406C832.92 929.782 829.698 931.118 826.338 931.122Z" fill="#E6E6E6"/>
<path d="M212.439 498.533L215.233 524.449L213.589 558.432L288.861 549.489L295.934 498.533L286.923 498.622L212.439 498.533Z" fill="#FFB6B6"/>
<path d="M302.256 418.222L278.984 409.615L269.039 395.173L233.266 391.596L211.201 405.732L192.703 415.152L193.02 464.336L214.288 552.411L290.328 549.429L300.337 486.624C300.337 486.624 323.589 455.393 298.549 437.507L302.256 418.222Z" fill="#CCCCCC"/>
<path d="M173.396 969.05H189.854L197.684 905.573H173.396V969.05Z" fill="#FFB6B6"/>
<path d="M168.025 957.778L194.317 956.209V967.474L219.314 984.737C220.549 985.59 221.478 986.814 221.968 988.233C222.457 989.651 222.48 991.189 222.033 992.621C221.587 994.054 220.694 995.306 219.486 996.195C218.277 997.084 216.816 997.564 215.316 997.564H184.014L178.619 986.421L176.512 997.564H164.71L168.025 957.778Z" fill="#2F2E41"/>
<path d="M265.837 969.05H282.295L290.126 905.573H265.837V969.05Z" fill="#FFB6B6"/>
<path d="M260.467 957.778L286.759 956.209V967.474L311.755 984.737C312.99 985.59 313.92 986.814 314.409 988.233C314.898 989.651 314.921 991.189 314.475 992.621C314.028 994.054 313.136 995.306 311.927 996.195C310.719 997.084 309.257 997.564 307.757 997.564H276.455L271.06 986.421L268.953 997.564H257.151L260.467 957.778Z" fill="#2F2E41"/>
<path d="M166.296 914.311H166.474L169.639 811.099C167.591 807.149 166.552 802.753 166.614 798.303C166.675 793.853 167.836 789.488 169.994 785.596L170.447 784.775L169.272 779.329C167.763 772.332 168.455 765.039 171.254 758.451L174.207 662.175C163.658 593.811 213.93 549.227 213.93 549.227H289.237L305.404 604.775C316.093 708.906 314.153 810.379 297.193 908.689L297.655 908.923C299.32 909.498 300.034 911.804 299.25 914.075C298.467 916.345 296.482 917.72 294.817 917.145L255.046 915.762C253.381 915.187 252.667 912.881 253.451 910.61C254.234 908.34 256.219 906.965 257.884 907.54L260.588 908.907L254.821 809.313L255.461 791.121L254.143 770.483L248.047 677.653L224.972 791.808L201.402 915.459C202.052 916.048 202.508 916.82 202.711 917.673C202.913 918.527 202.852 919.421 202.535 920.239C202.218 921.057 201.661 921.759 200.937 922.254C200.212 922.748 199.355 923.012 198.478 923.009H166.296C165.142 923.009 164.036 922.551 163.22 921.735C162.405 920.919 161.946 919.813 161.946 918.66C161.946 917.506 162.405 916.4 163.22 915.584C164.036 914.769 165.142 914.311 166.296 914.311Z" fill="#2F2E41"/>
<path d="M158.466 621.903C157.029 620.518 155.913 618.834 155.198 616.971C154.482 615.108 154.183 613.11 154.322 611.119C154.462 609.128 155.037 607.192 156.005 605.446C156.974 603.701 158.314 602.19 159.93 601.018L179.995 477.862L203.527 486.141L179.682 604.78C181.47 607.625 182.151 611.028 181.598 614.343C181.045 617.657 179.295 620.654 176.68 622.765C174.065 624.875 170.766 625.954 167.409 625.795C164.052 625.636 160.87 624.252 158.466 621.903Z" fill="#FFB6B6"/>
<path d="M195.867 415.042C195.867 415.042 189.118 412.499 186.668 427.583C184.707 439.659 165.561 512.552 167.372 529.441C165.125 530.228 163.204 531.741 161.911 533.74C160.618 535.739 160.027 538.111 160.231 540.484L195.535 540.664C200.941 534.768 201.642 527.655 199.032 525.907L203.916 504.356L226.919 434.827L200.779 416.794L195.867 415.042Z" fill="#CCCCCC"/>
<path d="M321.003 627.146C322.554 625.89 323.81 624.308 324.684 622.514C325.557 620.719 326.027 618.754 326.059 616.759C326.091 614.763 325.685 612.784 324.87 610.962C324.055 609.14 322.851 607.519 321.341 606.213L314.184 482.335L287.792 488.01L301.339 608.26C299.313 610.942 298.341 614.273 298.607 617.623C298.873 620.973 300.359 624.109 302.783 626.437C305.206 628.765 308.4 630.123 311.758 630.254C315.116 630.384 318.405 629.279 321.003 627.146Z" fill="#FFB6B6"/>
<path d="M301.541 417.834C301.541 417.834 308.484 415.881 309.627 431.12C310.542 443.32 323.344 517.59 320.086 534.261C322.257 535.238 324.041 536.91 325.157 539.013C326.273 541.116 326.657 543.531 326.25 545.876L291.061 543.019C286.183 536.679 286.097 529.532 288.848 528.015L285.836 506.124L268.902 434.874L296.497 419.157L301.541 417.834Z" fill="#CCCCCC"/>
<path d="M235.457 389.055C255.118 389.055 271.056 373.117 271.056 353.457C271.056 333.796 255.118 317.858 235.457 317.858C215.797 317.858 199.859 333.796 199.859 353.457C199.859 373.117 215.797 389.055 235.457 389.055Z" fill="#FFB8B8"/>
<path d="M164.709 428.271C157.176 425.601 149.642 422.926 142.109 420.247C143.408 418.068 145.061 416.122 147.001 414.489C154.174 408.5 164.074 407.417 173.18 405.397C182.301 403.376 192.201 399.235 195.534 390.518C198.998 381.455 193.976 371.671 191.061 362.435C186.976 349.547 187.063 335.159 192.533 322.806C198.002 310.453 209.114 300.437 222.305 297.493C235.495 294.564 250.403 299.34 258.513 310.135C263.738 308.568 269.357 308.968 274.308 311.259C279.258 313.551 283.199 317.577 285.384 322.575C287.275 327.309 287.333 333.009 284.518 337.266C281.704 341.523 275.686 343.703 271.155 341.336L273.781 334.669C265.657 337.425 260.375 352.116 261.471 360.631C262.554 369.131 267.518 376.577 272.555 383.519C277.591 390.46 282.96 397.474 285.125 405.772C288.242 417.707 284.028 430.753 276.235 440.321C268.442 449.889 257.46 456.383 246.088 461.16C237.575 464.739 228.729 467.465 219.678 469.299C221.294 466.153 222.896 463.007 224.513 459.861L205.333 471.464C201.624 471.825 197.887 472.041 194.149 472.113C183.268 472.301 172.17 471.161 162.212 466.817C152.24 462.459 143.48 454.565 139.872 444.304C138.716 440.985 138.168 437.485 138.256 433.971C147.074 432.066 155.891 430.166 164.709 428.271Z" fill="#2F2E41"/>
<path d="M128.808 958.352C127.704 958.403 126.612 958.113 125.679 957.522C124.745 956.931 124.016 956.068 123.59 955.049C123.164 954.03 123.061 952.904 123.296 951.825C123.531 950.746 124.092 949.765 124.903 949.015C125.039 948.475 125.137 948.087 125.272 947.547C125.224 947.43 125.175 947.312 125.126 947.195C124.014 944.569 122.151 942.331 119.772 940.76C117.392 939.19 114.601 938.357 111.75 938.368C108.898 938.379 106.114 939.232 103.746 940.82C101.377 942.408 99.5314 944.66 98.4393 947.294C94.0746 957.806 88.5176 968.336 87.1493 979.451C86.5467 984.364 86.8009 989.345 87.9006 994.171C77.6491 971.809 72.3258 947.503 72.2916 922.903C72.2894 916.73 72.6323 910.562 73.3188 904.427C73.8862 899.398 74.6733 894.404 75.6802 889.447C81.1748 862.547 92.9719 837.334 110.103 815.879C118.394 811.355 125.099 804.398 129.315 795.946C130.842 792.908 131.922 789.664 132.52 786.317C131.584 786.44 130.634 786.516 129.698 786.577C129.407 786.593 129.1 786.608 128.809 786.624L128.699 786.628C127.671 786.675 126.652 786.423 125.764 785.903C124.876 785.383 124.157 784.618 123.694 783.699C123.23 782.78 123.043 781.747 123.153 780.724C123.263 779.701 123.667 778.732 124.315 777.933C124.719 777.436 125.123 776.939 125.528 776.442C126.141 775.676 126.77 774.924 127.383 774.158C127.454 774.085 127.52 774.008 127.582 773.928C128.288 773.054 128.993 772.195 129.698 771.321C128.411 769.323 126.679 767.649 124.638 766.43C117.57 762.29 107.818 765.157 102.712 771.551C97.591 777.945 96.6251 786.915 98.4036 794.903C100.153 801.701 103.046 808.151 106.959 813.977C106.576 814.468 106.177 814.943 105.794 815.434C98.7869 824.445 92.6795 834.12 87.5597 844.322C88.8048 832.893 87.3188 821.332 83.2239 810.589C79.0738 800.577 71.2951 792.145 64.4449 783.49C56.2168 773.094 39.3443 777.631 37.8947 790.81C37.8807 790.938 37.867 791.065 37.8536 791.193C38.8711 791.767 39.867 792.376 40.8415 793.02C42.0657 793.838 43.0143 795.007 43.563 796.373C44.1117 797.739 44.2349 799.24 43.9164 800.677C43.5979 802.115 42.8527 803.422 41.7783 804.429C40.7039 805.436 39.3505 806.094 37.8954 806.319L37.7463 806.342C38.1088 810.009 38.7495 813.643 39.6629 817.213C42.3097 827.179 46.9867 836.491 53.4009 844.564C59.8151 852.638 67.828 859.3 76.9374 864.132C77.5354 864.438 78.1181 864.745 78.7161 865.036C73.5722 879.614 70.3457 894.798 69.1176 910.207C68.4224 919.299 68.4634 928.431 69.2403 937.515L69.1943 937.193C67.2315 927.092 61.8427 917.977 53.9379 911.388C42.1973 901.744 25.61 898.192 12.944 890.44C11.5979 889.576 10.0327 889.114 8.43305 889.11C6.83339 889.107 5.26601 889.56 3.91572 890.418C2.56542 891.276 1.48854 892.501 0.812118 893.951C0.135701 895.401 -0.112053 897.014 0.0980653 898.599C0.115033 898.712 0.132328 898.825 0.149891 898.938C2.03802 899.707 3.87636 900.593 5.65433 901.59C6.67181 902.164 7.66783 902.774 8.64231 903.418C9.86653 904.236 10.8151 905.405 11.3638 906.771C11.9125 908.137 12.0356 909.637 11.7172 911.075C11.3987 912.512 10.6534 913.82 9.57905 914.827C8.50465 915.833 7.15123 916.492 5.6961 916.716L5.54699 916.739C5.43964 916.755 5.34768 916.77 5.24049 916.785C8.46662 924.488 12.9946 931.579 18.6261 937.746C25.5829 945.21 33.9912 951.176 43.3353 955.276C52.6794 959.375 62.7625 961.524 72.9663 961.588H72.9816C75.7515 973.625 79.7648 985.341 84.9568 996.548H127.736C127.889 996.072 128.027 995.582 128.165 995.106C124.205 995.355 120.23 995.118 116.328 994.401C119.502 990.506 122.676 986.581 125.85 982.686C125.921 982.614 125.987 982.537 126.049 982.456C127.659 980.463 129.284 978.485 130.894 976.492L130.895 976.49C130.981 970.38 130.28 964.284 128.809 958.353L128.808 958.352Z" fill="#F2F2F2"/>
<path d="M416.141 999.542L5.0014 1000C4.53056 1000 4.079 999.813 3.74606 999.48C3.41313 999.147 3.22607 998.696 3.22607 998.225C3.22607 997.754 3.41313 997.302 3.74606 996.969C4.079 996.636 4.53056 996.449 5.0014 996.449L416.141 995.991C416.612 995.991 417.064 996.178 417.397 996.511C417.73 996.844 417.917 997.296 417.917 997.766C417.917 998.237 417.73 998.689 417.397 999.022C417.064 999.355 416.612 999.542 416.141 999.542Z" fill="#22C55E"/>
</g>
<defs>
<clipPath id="clip0_343_58">
<rect width="850.194" height="1000" fill="white"/>
</clipPath>
</defs>
</svg>
