<svg width="900" height="550" viewBox="0 0 900 550" fill="none" xmlns="http://www.w3.org/2000/svg">
<g clip-path="url(#clip0_343_135)">
<path d="M138.726 477.228C146.096 504.471 171.338 521.343 171.338 521.343C171.338 521.343 184.632 494.046 177.263 466.803C169.893 439.561 144.651 422.689 144.651 422.689C144.651 422.689 131.357 449.986 138.726 477.228Z" fill="#3F3D56"/>
<path d="M149.555 471.374C169.778 491.059 172.248 521.32 172.248 521.32C172.248 521.32 141.931 519.665 121.709 499.98C101.486 480.294 99.0164 450.033 99.0164 450.033C99.0164 450.033 129.333 451.688 149.555 471.374Z" fill="#22C55E"/>
<path d="M809.723 547.253H97.635V549.45H809.723V547.253Z" fill="#2F2E41"/>
<path d="M181.319 548.352H152.747V519.78H181.319V548.352ZM154.945 546.154H179.121V521.978H154.945V546.154Z" fill="#3F3D56"/>
<path d="M242.139 21.7875H0V263.927H242.139V21.7875Z" fill="#3F3D56"/>
<path d="M242.139 82.0306V87.5881C238.449 85.1431 235.47 81.7666 233.504 77.8004C230.28 71.2073 230.383 63.6076 230.485 56.2559C230.601 47.5185 230.718 39.2769 225.175 33.909C219.078 28.016 209.319 28.8474 199.882 29.6497C198.773 29.7373 197.665 29.8393 196.571 29.9268C187.104 30.6416 176.558 28.2494 171.438 21.7875H177.827C182.509 24.9382 189.671 26.0468 196.25 25.5508C197.315 25.4779 198.409 25.3757 199.503 25.2882C209.436 24.4423 220.697 23.4795 228.209 30.7582C235.123 37.439 234.992 47.0371 234.861 56.3142C234.759 63.1554 234.671 70.2154 237.443 75.8749C238.592 78.2131 240.188 80.3041 242.139 82.0306Z" fill="#22C55E"/>
<path d="M242.139 120.466V126.972C241.077 125.584 239.885 124.299 238.58 123.136C231.054 116.499 220.245 115.04 209.801 113.611C208.444 113.436 207.117 113.246 205.789 113.056C188.854 110.62 178.352 104.8 173.699 95.3044C170.475 88.7113 170.577 81.1116 170.679 73.7599C170.796 65.0225 170.913 56.7809 165.37 51.413C159.272 45.5199 149.514 46.3514 140.076 47.1537C138.968 47.2413 137.859 47.3433 136.765 47.4308C124.6 48.3497 110.64 44.1343 108.729 32.7421C108.073 28.8327 109.05 25.2445 110.494 21.7874H115.279C113.674 25.2591 112.478 28.614 113.047 32.0127C114.491 40.7063 126.19 43.8279 136.444 43.0548C137.509 42.9819 138.603 42.8797 139.697 42.7922C149.631 41.9463 160.891 40.9835 168.404 48.2623C175.318 54.943 175.186 64.5411 175.055 73.8182C174.953 80.6594 174.866 87.7194 177.637 93.3789C181.605 101.489 191.013 106.507 206.417 108.724C207.729 108.914 209.057 109.103 210.384 109.278C221.47 110.781 232.95 112.342 241.483 119.854C241.702 120.044 241.921 120.248 242.139 120.466Z" fill="#22C55E"/>
<path d="M242.139 230.129V239.115C236.873 233.514 232.468 225.826 229.099 216.214C228.384 214.172 227.698 212.086 227.013 210C223.235 198.578 219.326 186.778 210.019 179.236C200.071 171.185 185.82 169.405 172.036 167.684C170.271 167.465 168.506 167.246 166.755 167.013C144.408 164.052 130.566 157.006 124.424 145.483C120.165 137.475 120.296 128.256 120.428 119.343C120.588 108.753 120.749 98.747 113.426 92.2413C105.389 85.0937 92.5087 86.1002 80.0663 87.0776C78.593 87.1942 77.1344 87.311 75.7049 87.4131C59.6449 88.5217 41.2219 83.4163 38.7129 69.6027C37.4731 62.8345 40.6384 56.8393 43.687 51.0338C45.4375 47.708 47.1003 44.5427 47.9463 41.2899C49.726 34.5946 47.5234 27.0533 42.6367 21.7875H49.7843C51.8468 24.783 53.2502 28.1822 53.9014 31.7604C54.5527 35.3385 54.437 39.0142 53.5622 42.5443C52.5558 46.3514 50.6886 49.9106 48.8799 53.3531C46.0938 58.6335 43.4828 63.6221 44.4018 68.7275C46.3272 79.259 61.7454 83.0516 75.2672 82.1181C76.6822 82.016 78.1262 81.8993 79.5703 81.7972C92.6692 80.7615 107.518 79.6092 117.437 88.4342C126.554 96.5298 126.379 108.17 126.204 119.416C126.087 127.716 125.956 136.279 129.603 143.149C134.839 152.966 147.267 159.063 167.587 161.761C169.308 161.995 171.058 162.214 172.809 162.433C187.454 164.256 202.58 166.137 213.826 175.254C224.373 183.802 228.53 196.332 232.527 208.454C233.212 210.525 233.898 212.567 234.598 214.595C236.453 220.068 238.986 225.287 242.139 230.129Z" fill="#22C55E"/>
<path d="M0 119.562C6.65154 127.614 20.7569 130.59 33.4036 129.715C34.8331 129.612 36.2917 129.496 37.765 129.379C50.2075 128.402 63.0875 127.395 71.1248 134.543C78.4473 141.048 78.2869 151.055 78.1264 161.645C77.9951 170.557 77.8638 179.776 82.1232 187.784C88.2642 199.308 102.107 206.353 124.454 209.314C126.204 209.548 127.969 209.766 129.734 209.985C143.519 211.706 157.77 213.486 167.718 221.538C177.024 229.079 180.934 240.88 184.712 252.301C185.397 254.387 186.083 256.473 186.797 258.515C187.454 260.397 188.154 262.191 188.883 263.927H195.126C194.032 261.549 193.099 259.172 192.297 256.896C191.596 254.869 190.911 252.826 190.225 250.755C186.229 238.634 182.071 226.104 171.525 217.556C160.279 208.439 145.152 206.557 130.507 204.734C128.757 204.515 127.006 204.296 125.285 204.063C104.966 201.365 92.5381 195.267 87.3015 185.45C83.6548 178.58 83.7861 170.018 83.9028 161.718C84.0778 150.472 84.2529 138.831 75.1362 130.736C65.2173 121.911 50.368 123.063 37.2691 124.099C35.825 124.201 34.3809 124.318 32.966 124.42C19.4441 125.353 4.02597 121.561 2.10052 111.029C1.18159 105.924 3.79258 100.935 6.57864 95.6547C8.38739 92.2122 10.2545 88.6531 11.261 84.8459C14.0033 74.431 9.37929 62.8929 3.28224e-05 56.5914V63.739C5.11997 69.0194 7.45386 76.7357 5.64509 83.5914C4.79907 86.8443 3.13618 90.0096 1.38577 93.3354C0.919 94.2252 0.45221 95.1004 3.28224e-05 96.0047L0 119.562Z" fill="#22C55E"/>
<path d="M107.11 263.927H101.057C100.736 262.979 100.429 262.016 100.109 261.053C96.3306 249.632 92.4214 237.831 83.115 230.29C73.1668 222.238 58.9157 220.458 45.1313 218.737C43.3662 218.518 41.6013 218.3 39.8509 218.066C20.1296 215.455 7.01621 209.65 0 200.402V185.888C0.450925 188.785 1.36191 191.592 2.6985 194.202C7.93518 204.019 20.3631 210.116 40.6824 212.815C42.4036 213.048 44.154 213.267 45.9043 213.486C60.5494 215.309 75.6759 217.191 86.9222 226.308C97.4684 234.856 101.626 247.385 105.622 259.507C106.118 260.995 106.6 262.468 107.11 263.927Z" fill="#22C55E"/>
<path d="M570.34 21.7875H328.201V263.927H570.34V21.7875Z" fill="#3F3D56"/>
<path d="M444.895 39.2915C444.894 52.9335 441.283 66.3323 434.43 78.1277C427.576 89.9232 417.724 99.6953 405.872 106.452C394.021 113.209 380.593 116.709 366.952 116.599C353.31 116.488 339.941 112.77 328.201 105.821V21.7874H442.896C444.231 27.5262 444.902 33.3995 444.895 39.2915Z" fill="#22C55E"/>
<path d="M507.617 134.105C533.397 134.105 554.295 113.207 554.295 87.4277C554.295 61.6484 533.397 40.7502 507.617 40.7502C481.838 40.7502 460.94 61.6484 460.94 87.4277C460.94 113.207 481.838 134.105 507.617 134.105Z" fill="#22C55E"/>
<path d="M402.593 220.167C421.122 220.167 436.143 205.146 436.143 186.617C436.143 168.088 421.122 153.068 402.593 153.068C384.064 153.068 369.044 168.088 369.044 186.617C369.044 205.146 384.064 220.167 402.593 220.167Z" fill="#22C55E"/>
<path d="M570.341 224.251V263.927H522.336C520.297 257.545 520.216 250.699 522.103 244.27C523.99 237.841 527.758 232.125 532.922 227.857C538.086 223.588 544.41 220.964 551.079 220.321C557.748 219.679 564.456 221.047 570.341 224.251Z" fill="#22C55E"/>
<path d="M487.196 193.911C492.03 193.911 495.948 189.992 495.948 185.159C495.948 180.325 492.03 176.407 487.196 176.407C482.363 176.407 478.444 180.325 478.444 185.159C478.444 189.992 482.363 193.911 487.196 193.911Z" fill="#22C55E"/>
<path d="M900 21.7875H657.861V263.927H900V21.7875Z" fill="#3F3D56"/>
<path d="M776.013 21.7874V120.977H657.861V126.812H781.848V21.7874H776.013Z" fill="#22C55E"/>
<path d="M889.979 263.927L900 249.676V239.538L882.846 263.927H889.979ZM849.282 159.515L795.588 235.877L835.483 263.927H845.621L803.713 234.462L850.697 167.64L900 202.313V195.18L849.282 159.515Z" fill="#22C55E"/>
<path d="M759.968 149.844L729.029 180.783L759.968 211.721L790.906 180.783L759.968 149.844ZM737.271 180.783L759.968 158.086L782.665 180.783L759.968 203.479L737.271 180.783Z" fill="#22C55E"/>
<path d="M118.681 43.9561C130.82 43.9561 140.659 34.1162 140.659 21.978C140.659 9.8399 130.82 0 118.681 0C106.543 0 96.7034 9.8399 96.7034 21.978C96.7034 34.1162 106.543 43.9561 118.681 43.9561Z" fill="#F2F2F2"/>
<path d="M458.242 43.9561C470.38 43.9561 480.22 34.1162 480.22 21.978C480.22 9.8399 470.38 0 458.242 0C446.104 0 436.264 9.8399 436.264 21.978C436.264 34.1162 446.104 43.9561 458.242 43.9561Z" fill="#F2F2F2"/>
<path d="M782.417 43.9561C794.556 43.9561 804.396 34.1162 804.396 21.978C804.396 9.8399 794.556 0 782.417 0C770.279 0 760.439 9.8399 760.439 21.978C760.439 34.1162 770.279 43.9561 782.417 43.9561Z" fill="#F2F2F2"/>
<path d="M435.714 150C447.246 150 456.593 140.652 456.593 129.121C456.593 117.59 447.246 108.242 435.714 108.242C424.183 108.242 414.835 117.59 414.835 129.121C414.835 140.652 424.183 150 435.714 150Z" fill="#FFB8B8"/>
<path d="M424.725 139.011C424.725 139.011 430.22 167.582 428.022 173.077C425.824 178.571 458.791 170.879 458.791 170.879C458.791 170.879 452.198 142.308 453.297 135.714C454.395 129.121 424.725 139.011 424.725 139.011Z" fill="#FFB8B8"/>
<path d="M388.462 237.912L390.659 267.582L401.567 314.179L404.945 326.923L410.44 307.143L404.945 262.088L403.079 241.803L388.462 237.912Z" fill="#FFB8B8"/>
<path d="M503.846 233.516V264.286C503.846 264.286 500.549 303.846 493.956 313.736C487.363 323.626 485.165 274.176 485.165 274.176L490.331 237.912L503.846 233.516Z" fill="#FFB8B8"/>
<path d="M406.044 329.121C406.044 329.121 400.55 335.714 404.945 402.747C409.341 469.78 402.747 518.132 417.033 518.132C417.033 518.132 412.637 532.418 424.725 533.517C436.813 534.615 442.308 535.714 443.407 532.418C444.506 529.121 446.703 513.736 443.407 513.736C443.407 513.736 443.407 518.132 445.604 500.55C447.802 482.967 447.802 399.451 453.297 388.462L470.879 429.121C470.879 429.121 470.879 447.802 474.176 456.593C477.473 465.385 482.967 515.934 482.967 515.934L481.868 523.626C481.868 523.626 508.242 528.022 509.341 523.626C510.44 519.231 510.44 512.637 509.341 510.44C508.242 508.242 508.242 508.242 510.44 503.846C512.637 499.451 512.637 496.154 511.539 492.857C510.44 489.56 510.44 418.132 510.44 418.132C510.44 418.132 508.242 331.319 495.055 326.923C481.868 322.527 406.044 329.121 406.044 329.121Z" fill="#2F2E41"/>
<path d="M420.33 524.725L411.539 540.11C411.539 540.11 397.802 535.165 400.55 547.802C424.176 549.451 440.659 547.253 440.659 547.253C440.659 547.253 446.154 549.451 447.253 546.154C448.352 542.857 444.506 531.319 441.209 531.319C437.912 531.319 420.33 524.725 420.33 524.725Z" fill="#2F2E41"/>
<path d="M484.066 520.33C484.066 520.33 475.275 540.11 478.571 541.209C481.868 542.308 511.538 546.703 513.736 547.802C515.934 548.901 526.923 550 528.022 543.407C529.121 536.813 522.528 534.615 522.528 534.615C522.528 534.615 510.44 532.418 507.143 521.429C503.846 510.44 484.066 520.33 484.066 520.33Z" fill="#2F2E41"/>
<path d="M460.989 167.582C460.989 167.582 431.319 162.088 424.725 167.582C418.132 173.077 390.659 184.066 390.659 189.56C390.659 195.055 404.945 248.901 404.945 248.901C404.945 248.901 397.253 330.22 404.945 332.418C412.637 334.615 425.824 328.022 441.209 335.714C456.593 343.407 500.549 329.121 500.549 329.121C500.549 329.121 484.066 258.791 488.462 245.604C492.857 232.418 496.154 187.363 496.154 187.363C496.154 187.363 477.473 167.582 460.989 167.582Z" fill="#8985A8"/>
<path d="M398.352 186.264L390.659 188.461C390.659 188.461 374.176 240.11 380.769 242.308C387.363 244.505 406.044 248.901 408.242 248.901C410.44 248.901 398.352 186.264 398.352 186.264Z" fill="#8985A8"/>
<path d="M478.571 180.769L496.154 187.363C496.154 187.363 519.231 230.22 513.736 235.714C508.242 241.209 484.066 246.703 484.066 246.703L478.571 180.769Z" fill="#8985A8"/>
<path d="M435.08 103.332C433.344 103.018 431.559 103.096 429.857 103.563C428.495 104.166 427.241 104.988 426.145 105.998C424.157 107.582 422.033 108.989 419.799 110.202C418.018 111.169 416.104 112.064 414.861 113.664C414.273 114.472 413.804 115.361 413.467 116.302C411.326 121.771 410.75 127.729 411.805 133.507C411.924 134.328 412.171 135.125 412.537 135.869C413.679 137.973 416.202 138.803 418.327 139.906C422.361 142 425.42 145.527 428.729 148.643C429.958 149.87 431.339 150.935 432.839 151.811C437.56 154.384 443.33 153.545 448.629 152.635C449.005 152.634 449.376 152.559 449.723 152.414C450.069 152.269 450.383 152.057 450.647 151.79C450.911 151.523 451.12 151.206 451.261 150.858C451.402 150.51 451.473 150.137 451.469 149.762L455.652 130.948C456.41 128.161 456.771 125.28 456.724 122.392C456.432 117.825 453.96 111.498 450.608 108.254C446.703 104.474 440.185 103.873 435.08 103.332Z" fill="#2F2E41"/>
<path d="M293.67 531.781C298.46 531.781 302.342 527.898 302.342 523.109C302.342 518.32 298.46 514.437 293.67 514.437C288.881 514.437 284.999 518.32 284.999 523.109C284.999 527.898 288.881 531.781 293.67 531.781Z" fill="#22C55E"/>
<path d="M293.67 548.161C288.715 548.161 283.872 546.692 279.752 543.939C275.632 541.186 272.421 537.274 270.525 532.696C268.629 528.118 268.133 523.081 269.1 518.222C270.066 513.362 272.452 508.898 275.956 505.395C279.459 501.891 283.923 499.505 288.783 498.538C293.642 497.572 298.679 498.068 303.257 499.964C307.835 501.86 311.747 505.071 314.5 509.191C317.253 513.311 318.722 518.154 318.722 523.109C318.715 529.751 316.073 536.119 311.376 540.815C306.68 545.512 300.312 548.154 293.67 548.161ZM293.67 499.984C289.096 499.984 284.626 501.34 280.823 503.881C277.02 506.422 274.056 510.034 272.306 514.259C270.555 518.485 270.097 523.135 270.99 527.62C271.882 532.106 274.084 536.227 277.318 539.461C280.552 542.695 284.673 544.897 289.159 545.79C293.645 546.682 298.294 546.224 302.52 544.474C306.745 542.723 310.357 539.759 312.898 535.957C315.439 532.154 316.795 527.683 316.795 523.109C316.788 516.978 314.349 511.1 310.014 506.765C305.679 502.43 299.801 499.991 293.67 499.984Z" fill="#2F2E41"/>
<path d="M715.648 532.88C720.438 532.88 724.32 528.997 724.32 524.208C724.32 519.419 720.438 515.536 715.648 515.536C710.859 515.536 706.977 519.419 706.977 524.208C706.977 528.997 710.859 532.88 715.648 532.88Z" fill="#22C55E"/>
<path d="M715.648 549.26C710.693 549.26 705.85 547.791 701.73 545.038C697.61 542.285 694.399 538.373 692.503 533.795C690.607 529.217 690.111 524.18 691.078 519.32C692.044 514.461 694.43 509.997 697.934 506.493C701.437 502.99 705.901 500.604 710.761 499.637C715.62 498.671 720.658 499.167 725.235 501.063C729.813 502.959 733.725 506.17 736.478 510.29C739.231 514.41 740.7 519.253 740.7 524.208C740.693 530.85 738.051 537.218 733.354 541.914C728.658 546.611 722.29 549.252 715.648 549.26ZM715.648 501.083C711.075 501.083 706.604 502.439 702.801 504.98C698.998 507.521 696.034 511.133 694.284 515.358C692.533 519.584 692.075 524.234 692.968 528.719C693.86 533.205 696.062 537.326 699.296 540.56C702.53 543.794 706.651 545.996 711.137 546.889C715.623 547.781 720.272 547.323 724.498 545.573C728.723 543.822 732.335 540.858 734.876 537.055C737.417 533.253 738.773 528.782 738.773 524.208C738.766 518.077 736.327 512.199 731.992 507.864C727.657 503.529 721.779 501.09 715.648 501.083Z" fill="#2F2E41"/>
<path d="M715.648 484.528C720.438 484.528 724.32 480.646 724.32 475.856C724.32 471.067 720.438 467.184 715.648 467.184C710.859 467.184 706.977 471.067 706.977 475.856C706.977 480.646 710.859 484.528 715.648 484.528Z" fill="#22C55E"/>
<path d="M715.648 500.908C710.693 500.908 705.85 499.439 701.73 496.686C697.61 493.933 694.399 490.021 692.503 485.443C690.607 480.866 690.111 475.828 691.078 470.969C692.044 466.109 694.43 461.645 697.934 458.142C701.437 454.638 705.901 452.252 710.761 451.286C715.62 450.319 720.658 450.815 725.235 452.711C729.813 454.607 733.725 457.818 736.478 461.938C739.231 466.058 740.7 470.901 740.7 475.856C740.693 482.498 738.051 488.866 733.354 493.562C728.658 498.259 722.29 500.901 715.648 500.908ZM715.648 452.731C711.075 452.731 706.604 454.088 702.801 456.629C698.998 459.17 696.034 462.781 694.284 467.007C692.533 471.232 692.075 475.882 692.968 480.368C693.86 484.853 696.062 488.974 699.296 492.208C702.53 495.442 706.651 497.645 711.137 498.537C715.623 499.429 720.272 498.971 724.498 497.221C728.723 495.471 732.335 492.507 734.876 488.704C737.417 484.901 738.773 480.43 738.773 475.856C738.766 469.725 736.327 463.847 731.992 459.512C727.657 455.177 721.779 452.738 715.648 452.731Z" fill="#2F2E41"/>
</g>
<defs>
<clipPath id="clip0_343_135">
<rect width="900" height="549.451" fill="white"/>
</clipPath>
</defs>
</svg>
