<svg width="561" height="492" viewBox="0 0 561 492" fill="none" xmlns="http://www.w3.org/2000/svg">
<path d="M0.33332 218.933C0.33332 457.6 0.0666534 446.4 7.93332 461.067C13.6667 471.467 24.2 481.2 35.9333 486.933L46.3333 492H280.467H514.467L524.867 486.933C536.6 481.067 547 471.333 552.733 461.067C560.6 446.4 560.333 457.6 560.333 218.933V0.666641H280.333H0.33332V218.933ZM547 144.933C547 271.333 547 274.533 544.467 272C543.133 270.533 529.267 254.4 513.667 236.133L485.267 203.067L433.667 254.667C405.267 283.067 381.4 306 380.867 305.6C380.2 305.2 342.2 258.933 296.333 202.933L213 100.8L114.333 199.467C60.0667 253.6 15.2667 298 14.6 298C14.0667 298 13.6667 234.4 13.6667 156.667V15.3333H280.333H547V144.933ZM357.667 299.333C437 396.533 502.6 476.8 503.4 477.733C504.467 479.067 460.2 479.333 277.533 479.067L50.3333 478.667L41.4 474.267C30.6 468.933 21.6667 459.6 17.4 448.933C14.3333 441.467 14.3333 440.533 13.9333 380.133L13.5333 318.8L112.6 219.733C167 165.333 211.933 121.2 212.467 121.733C212.867 122.267 278.2 202.133 357.667 299.333ZM516.867 260.667L547.133 295.867L546.733 368.667C546.333 441.067 546.333 441.333 543.267 448.933C539.8 457.6 530.733 468.267 523.8 472C519 474.533 519 474.533 516.467 472C514.6 470 398.733 328.133 391.933 319.6C390.867 318.267 401.667 306.667 437.667 270.667C463.667 244.667 485.267 223.867 485.8 224.4C486.333 224.933 500.333 241.2 516.867 260.667Z" fill="#4ADE80"/>
<path d="M384.333 72.1333C356.2 79.6 337.533 108.933 342.867 137.333C349.8 175.467 390.067 196.4 424.733 180C459.8 163.467 468.6 116.8 441.933 88.4C427.267 72.8 405.267 66.5333 384.333 72.1333ZM418.333 87.8666C427.4 92 435.667 100.267 440.067 109.867C445.267 120.8 445.133 135.6 439.933 146.267C435.133 156.133 424.067 166.267 414.733 169.467C379.8 181.467 346.2 147.867 358.067 113.067C360.733 105.333 369.667 94.5333 377.267 89.7333C388.867 82.6666 405.267 81.8666 418.333 87.8666Z" fill="#4ADE80"/>
</svg>
