<svg width="600" height="600" viewBox="0 0 600 600" fill="none" xmlns="http://www.w3.org/2000/svg">
<circle cx="300" cy="300" r="300" fill="#22C55E"/>
<path d="M300.12 334.438C280.991 334.438 265.427 318.875 265.427 299.745C265.427 280.615 280.991 265.052 300.12 265.052C319.25 265.052 334.814 280.615 334.814 299.745C334.814 318.876 319.251 334.438 300.12 334.438ZM300.12 287.794C293.531 287.794 288.169 293.156 288.169 299.745C288.169 306.335 293.531 311.696 300.12 311.696C306.71 311.696 312.072 306.335 312.072 299.745C312.072 293.156 306.71 287.794 300.12 287.794Z" fill="white"/>
<path d="M227.722 446.512C221.442 446.512 216.35 441.421 216.35 435.141V420.677C216.35 381.539 184.51 349.698 145.372 349.698C139.093 349.698 134.001 344.608 134.001 338.327C134.001 332.047 139.093 326.956 145.372 326.956C197.049 326.956 239.093 369 239.093 420.677V435.141C239.093 441.421 234.001 446.512 227.722 446.512Z" fill="white"/>
<path d="M372.317 446.512C366.037 446.512 360.946 441.421 360.946 435.141V420.677C360.946 369 402.989 326.956 454.667 326.956C460.946 326.956 466.038 332.047 466.038 338.327C466.038 344.608 460.946 349.698 454.667 349.698C415.528 349.698 383.688 381.539 383.688 420.677V435.141C383.688 441.421 378.596 446.512 372.317 446.512Z" fill="white"/>
<path d="M145.37 349.7C142.552 349.7 139.732 348.66 137.529 346.563C132.982 342.232 132.806 335.035 137.136 330.487C176.86 288.773 218.818 220.875 252.253 144.204C266.856 110.722 279.261 77.046 289.125 44.1129C290.928 38.0965 297.266 34.6806 303.28 36.4818C309.297 38.2829 312.713 44.6212 310.912 50.6377C300.787 84.4418 288.065 118.98 273.098 153.295C238.642 232.306 195.089 302.607 153.606 346.17C151.371 348.517 148.373 349.7 145.37 349.7Z" fill="white"/>
<path d="M454.669 349.7C451.665 349.7 448.667 348.517 446.432 346.17C404.933 302.59 361.376 232.29 326.928 153.294C312.009 119.085 299.326 84.6613 289.229 50.9811L289.135 50.6673C287.317 44.6553 290.717 38.3091 296.728 36.4909C302.736 34.6703 309.084 38.0715 310.905 44.0834L311.007 44.4245C320.85 77.2632 333.218 110.825 347.775 144.204C381.202 220.86 423.164 288.757 462.903 330.488C467.234 335.037 467.057 342.233 462.509 346.565C460.308 348.659 457.484 349.7 454.669 349.7Z" fill="white"/>
<path d="M402.995 548H197.042C190.763 548 185.671 542.909 185.671 536.629V435.141C185.671 428.861 190.763 423.77 197.042 423.77H402.995C409.274 423.77 414.366 428.861 414.366 435.141V536.629C414.366 542.909 409.275 548 402.995 548ZM208.413 525.257H391.624V446.512H208.413V525.257Z" fill="white"/>
<path d="M402.995 497.262H300.018C293.738 497.262 288.647 492.171 288.647 485.891C288.647 479.61 293.738 474.519 300.018 474.519H402.995C409.274 474.519 414.366 479.61 414.366 485.891C414.366 492.171 409.275 497.262 402.995 497.262Z" fill="white"/>
<path d="M300.12 287.794C293.841 287.794 288.749 282.703 288.749 276.423V47.3753C288.749 41.095 293.841 36.0042 300.12 36.0042C306.401 36.0042 311.492 41.095 311.492 47.3753V276.424C311.492 282.703 306.401 287.794 300.12 287.794Z" fill="white"/>
</svg>
